<?xml version="1.0" encoding="UTF-8" standalone="no"?>
<!-- Created with Inkscape (http://www.inkscape.org/) -->

<svg
   xmlns:dc="http://purl.org/dc/elements/1.1/"
   xmlns:cc="http://creativecommons.org/ns#"
   xmlns:rdf="http://www.w3.org/1999/02/22-rdf-syntax-ns#"
   xmlns:svg="http://www.w3.org/2000/svg"
   xmlns="http://www.w3.org/2000/svg"
   xmlns:sodipodi="http://sodipodi.sourceforge.net/DTD/sodipodi-0.dtd"
   xmlns:inkscape="http://www.inkscape.org/namespaces/inkscape"
   width="155.54512mm"
   height="149.49794mm"
   viewBox="0 0 155.54512 149.49794"
   version="1.1"
   id="svg8"
   sodipodi:docname="hg-periodic_v2.svg"
   inkscape:version="0.92.4 (5da689c313, 2019-01-14)">
  <defs
     id="defs2" />
  <sodipodi:namedview
     id="base"
     pagecolor="#ffffff"
     bordercolor="#666666"
     borderopacity="1.0"
     inkscape:pageopacity="0.0"
     inkscape:pageshadow="2"
     inkscape:zoom="0.98994949"
     inkscape:cx="273.21513"
     inkscape:cy="237.82959"
     inkscape:document-units="mm"
     inkscape:current-layer="layer1"
     showgrid="false"
     inkscape:window-width="1920"
     inkscape:window-height="1017"
     inkscape:window-x="-8"
     inkscape:window-y="-8"
     inkscape:window-maximized="1"
     fit-margin-top="0"
     fit-margin-left="0"
     fit-margin-right="0"
     fit-margin-bottom="0" />
  <metadata
     id="metadata5">
    <rdf:RDF>
      <cc:Work
         rdf:about="">
        <dc:format>image/svg+xml</dc:format>
        <dc:type
           rdf:resource="http://purl.org/dc/dcmitype/StillImage" />
        <dc:title></dc:title>
      </cc:Work>
    </rdf:RDF>
  </metadata>
  <g
     inkscape:label="Layer 1"
     inkscape:groupmode="layer"
     id="layer1"
     transform="translate(-34.877927,-65.045393)">
    <path
       style="opacity:1;fill:none;fill-opacity:1;fill-rule:nonzero;stroke:#7d7d7d;stroke-width:0.95300001;stroke-linecap:square;stroke-linejoin:round;stroke-miterlimit:4;stroke-dasharray:none;stroke-opacity:1"
       d="M 35.354427,65.521893 V 214.06683 H 189.94654 V 65.521893 Z"
       id="rect815"
       inkscape:connector-curvature="0" />
    <path
       style="font-style:normal;font-variant:normal;font-weight:normal;font-stretch:normal;font-size:96px;line-height:1.25;font-family:Arial;-inkscape-font-specification:Arial;letter-spacing:0px;word-spacing:0px;fill:#7d7d7d;fill-opacity:1;stroke:none"
       d="m 609.24805,280.66211 c -5.96875,0 -10.75,1.70312 -14.34375,5.10937 -3.59375,3.40625 -5.39063,7.60938 -5.39063,12.60938 0,3.3125 0.84375,6.15625 2.53125,8.53125 1.6875,2.375 4.28125,4.20312 7.78125,5.48437 -4.1875,1.09375 -7.42187,3.15625 -9.70312,6.1875 -2.25,3 -3.375,6.73438 -3.375,11.20313 0,6 2.07812,11.01562 6.23437,15.04687 4.15625,4 9.625,6 16.40625,6 6.78125,0 12.25,-2 16.40625,-6 4.15625,-4 6.23438,-8.9375 6.23438,-14.8125 0,-4.25 -1.10938,-7.90625 -3.32813,-10.96875 -2.1875,-3.0625 -5.39062,-5.28125 -9.60937,-6.65625 3.40625,-1.28125 5.9375,-3.09375 7.59375,-5.4375 1.6875,-2.375 2.53125,-5.15625 2.53125,-8.34375 0,-5 -1.82813,-9.23437 -5.48438,-12.70312 -3.65625,-3.5 -8.48437,-5.25 -14.48437,-5.25 z m 53.4375,0 c -5,0 -9.15625,1.34375 -12.46875,4.03125 -3.28125,2.6875 -5.76563,6.51562 -7.45313,11.48437 -1.65625,4.9375 -2.48437,11.46875 -2.48437,19.59375 0,12.90625 2.26562,22.21875 6.79687,27.9375 3.78125,4.75 8.98438,7.125 15.60938,7.125 5.03125,0 9.1875,-1.34375 12.46875,-4.03125 3.3125,-2.71875 5.79687,-6.54687 7.45312,-11.48437 1.65625,-4.96875 2.48438,-11.48438 2.48438,-19.54688 0,-6.8125 -0.51563,-12.21875 -1.54688,-16.21875 -1.03125,-4.03125 -2.45312,-7.4375 -4.26562,-10.21875 -1.8125,-2.8125 -4.10938,-4.95312 -6.89063,-6.42187 -2.78125,-1.5 -6.01562,-2.25 -9.70312,-2.25 z m -472.62696,6.10156 c -3.26562,0 -5.86718,0.85156 -7.80468,2.55469 -1.9375,1.6875 -3.05469,4.14844 -3.35157,7.38281 l 4.33594,0.44531 c 0.0156,-2.15625 0.63281,-3.84375 1.85156,-5.0625 1.21875,-1.21875 2.84375,-1.82812 4.875,-1.82812 1.92188,0 3.47657,0.57812 4.66407,1.73437 1.20312,1.14063 1.80468,2.54688 1.80468,4.21875 0,1.59375 -0.65625,3.28907 -1.96875,5.08594 -1.3125,1.78125 -3.83593,4.20313 -7.57031,7.26563 -2.40625,1.96875 -4.25,3.70312 -5.53125,5.20312 -1.26562,1.5 -2.1875,3.02344 -2.76562,4.57031 -0.35938,0.9375 -0.52344,1.91407 -0.49219,2.92969 h 22.71094 v -4.05469 h -16.85157 c 0.46875,-0.76562 1.0625,-1.52343 1.78125,-2.27343 0.71875,-0.76563 2.34375,-2.21094 4.875,-4.33594 3.03125,-2.5625 5.19532,-4.57813 6.49219,-6.04688 1.3125,-1.46875 2.25,-2.86718 2.8125,-4.19531 0.5625,-1.32812 0.84375,-2.67969 0.84375,-4.05469 0,-2.70312 -0.96094,-4.96875 -2.88281,-6.79687 -1.92188,-1.82813 -4.53125,-2.74219 -7.82813,-2.74219 z m 26.50782,0 c -2.5,0 -4.57813,0.67188 -6.23438,2.01563 -1.64062,1.34375 -2.88281,3.25781 -3.72656,5.74218 -0.82813,2.46875 -1.24219,5.73438 -1.24219,9.79688 0,6.45312 1.13281,11.10937 3.39844,13.96875 1.89062,2.375 4.49219,3.5625 7.80469,3.5625 2.51562,0 4.59375,-0.67188 6.23437,-2.01563 1.65625,-1.35937 2.89844,-3.27343 3.72656,-5.74218 0.82813,-2.48438 1.24219,-5.74219 1.24219,-9.77344 0,-3.40625 -0.25781,-6.10938 -0.77344,-8.10938 -0.51562,-2.01562 -1.22656,-3.71875 -2.13281,-5.10937 -0.90625,-1.40625 -2.05469,-2.47656 -3.44531,-3.21094 -1.39063,-0.75 -3.00781,-1.125 -4.85156,-1.125 z m 26.71875,0 c -2.5,0 -4.57813,0.67188 -6.23438,2.01563 -1.64062,1.34375 -2.88281,3.25781 -3.72656,5.74218 -0.82813,2.46875 -1.24219,5.73438 -1.24219,9.79688 0,6.45312 1.13281,11.10937 3.39844,13.96875 1.89062,2.375 4.49219,3.5625 7.80469,3.5625 2.51562,0 4.59375,-0.67188 6.23437,-2.01563 1.65625,-1.35937 2.89844,-3.27343 3.72656,-5.74218 0.82813,-2.48438 1.24219,-5.74219 1.24219,-9.77344 0,-3.40625 -0.25781,-6.10938 -0.77344,-8.10938 -0.51562,-2.01562 -1.22656,-3.71875 -2.13281,-5.10937 -0.90625,-1.40625 -2.05469,-2.47656 -3.44531,-3.21094 -1.39063,-0.75 -3.00781,-1.125 -4.85156,-1.125 z m 66.35156,0 c -3.09375,0 -5.67188,1.0625 -7.73438,3.1875 -2.04687,2.125 -3.07031,4.92969 -3.07031,8.41406 0,3.375 0.98438,6.09375 2.95313,8.15625 1.96875,2.0625 4.375,3.09375 7.21875,3.09375 1.70312,0 3.28125,-0.41406 4.73437,-1.24218 1.46875,-0.84375 2.625,-1.9375 3.46875,-3.28125 0.0156,0.375 0.0234,0.65625 0.0234,0.84375 0,1.75 -0.21094,3.46875 -0.63281,5.15625 -0.42188,1.6875 -0.94532,3.03125 -1.57032,4.03125 -0.625,0.98437 -1.42968,1.77343 -2.41406,2.36718 -0.96875,0.59375 -2.10156,0.89063 -3.39844,0.89063 -1.51562,0 -2.75781,-0.42969 -3.72656,-1.28906 -0.96875,-0.85938 -1.625,-2.24219 -1.96875,-4.14844 l -4.05469,0.375 c 0.34375,2.70312 1.36719,4.80469 3.07032,6.30469 1.70312,1.48437 3.89843,2.22656 6.58593,2.22656 2.53125,0 4.73438,-0.67969 6.60938,-2.03906 1.89062,-1.35938 3.3125,-3.33594 4.26562,-5.92969 0.95313,-2.60938 1.42969,-6.10938 1.42969,-10.5 0,-4.21875 -0.48437,-7.4375 -1.45312,-9.65625 -0.95313,-2.23438 -2.35938,-3.95313 -4.21875,-5.15625 -1.84375,-1.20313 -3.88282,-1.80469 -6.11719,-1.80469 z m -33.44531,0.60938 -3.32813,17.64843 3.96094,0.51563 c 0.625,-0.98438 1.48437,-1.78125 2.57812,-2.39063 1.09375,-0.625 2.32032,-0.9375 3.67969,-0.9375 2.1875,0 3.95313,0.69532 5.29688,2.08594 1.35937,1.39063 2.03906,3.28906 2.03906,5.69531 0,2.53125 -0.70313,4.5625 -2.10938,6.09375 -1.40625,1.53125 -3.125,2.29688 -5.15625,2.29688 -1.6875,0 -3.13281,-0.53906 -4.33593,-1.61719 -1.1875,-1.09375 -1.94532,-2.71875 -2.27344,-4.875 l -4.42969,0.375 c 0.28125,2.89063 1.40625,5.21094 3.375,6.96094 1.98438,1.75 4.53906,2.625 7.66406,2.625 3.8125,0 6.82032,-1.39063 9.02344,-4.17188 1.8125,-2.26562 2.71875,-4.95312 2.71875,-8.0625 0,-3.26562 -1.03125,-5.9375 -3.09375,-8.01562 -2.0625,-2.07813 -4.59375,-3.11719 -7.59375,-3.11719 -2.26562,0 -4.42969,0.71875 -6.49219,2.15625 l 1.85157,-9.23437 h 13.71093 v -4.03125 z m 333.15039,0.22656 c 3.1875,0 5.84375,1.0625 7.96875,3.1875 2.15625,2.09375 3.23437,4.6875 3.23437,7.78125 0,2.96875 -1.04687,5.48437 -3.14062,7.54687 -2.0625,2.03125 -4.71875,3.04688 -7.96875,3.04688 -3.34375,0 -6.0625,-1.03125 -8.15625,-3.09375 -2.09375,-2.0625 -3.14063,-4.71875 -3.14063,-7.96875 0,-2.875 1.0625,-5.34375 3.1875,-7.40625 2.125,-2.0625 4.79688,-3.09375 8.01563,-3.09375 z m 53.25,0.0469 c 3.9375,0 7.21875,1.85938 9.84375,5.57813 2.65625,3.71875 3.98437,11.23437 3.98437,22.54687 0,11.25 -1.32812,18.75 -3.98437,22.5 -2.625,3.75 -5.875,5.625 -9.75,5.625 -3.875,0 -7.14063,-1.85937 -9.79688,-5.57812 -2.625,-3.75 -3.9375,-11.26563 -3.9375,-22.54688 0,-11.28125 1.45313,-19.01562 4.35938,-23.20312 2.3125,-3.28125 5.40625,-4.92188 9.28125,-4.92188 z m -446.07227,2.60938 c 1.96875,0 3.60938,0.92969 4.92188,2.78906 1.32812,1.85938 1.99218,5.61719 1.99218,11.27344 0,5.625 -0.66406,9.375 -1.99218,11.25 -1.3125,1.875 -2.9375,2.8125 -4.875,2.8125 -1.9375,0 -3.57032,-0.92969 -4.89844,-2.78906 -1.3125,-1.875 -1.96875,-5.63282 -1.96875,-11.27344 0,-5.64063 0.72656,-9.50781 2.17969,-11.60156 1.15625,-1.64063 2.70312,-2.46094 4.64062,-2.46094 z m 26.71875,0 c 1.96875,0 3.60938,0.92969 4.92188,2.78906 1.32812,1.85938 1.99218,5.61719 1.99218,11.27344 0,5.625 -0.66406,9.375 -1.99218,11.25 -1.3125,1.875 -2.9375,2.8125 -4.875,2.8125 -1.9375,0 -3.57032,-0.92969 -4.89844,-2.78906 -1.3125,-1.875 -1.96875,-5.63282 -1.96875,-11.27344 0,-5.64063 0.72656,-9.50781 2.17969,-11.60156 1.15625,-1.64063 2.70312,-2.46094 4.64062,-2.46094 z m 66.91406,0 c 1.8125,0 3.35938,0.71094 4.64063,2.13281 1.29687,1.42188 1.94531,3.34375 1.94531,5.76563 0,2.42187 -0.63281,4.32031 -1.89844,5.69531 -1.25,1.35937 -2.85156,2.03906 -4.80468,2.03906 -1.9375,0 -3.57032,-0.67969 -4.89844,-2.03906 -1.3125,-1.375 -1.96875,-3.15625 -1.96875,-5.34375 0,-2.4375 0.69531,-4.42188 2.08594,-5.95313 1.39062,-1.53125 3.02343,-2.29687 4.89843,-2.29687 z m 299.04883,25.79687 c 4.0625,0 7.4375,1.32813 10.125,3.98438 2.71875,2.65625 4.07813,6.01562 4.07813,10.07812 0,4 -1.3125,7.29688 -3.9375,9.89063 -2.625,2.59375 -5.95313,3.89062 -9.98438,3.89062 -2.59375,0 -5.01562,-0.60937 -7.26562,-1.82812 -2.25,-1.25 -3.95313,-3 -5.10938,-5.25 -1.125,-2.25 -1.6875,-4.57813 -1.6875,-6.98438 0,-3.9375 1.29688,-7.21875 3.89063,-9.84375 2.625,-2.625 5.92187,-3.9375 9.89062,-3.9375 z m -348.0332,0.40625 v 4.80469 h 4.80469 v -4.80469 z M 185.875,366.14844 c -0.48958,0.98958 -1.32292,2.01041 -2.5,3.0625 -1.17708,1.05208 -2.55208,1.94791 -4.125,2.6875 v 2.71875 c 0.875,-0.32292 1.85939,-0.80729 2.95312,-1.45313 1.10417,-0.64583 1.9948,-1.29166 2.67188,-1.9375 v 17.92188 h 2.8125 v -23 z m 16.5,0 c -1.66667,0 -3.05208,0.44791 -4.15625,1.34375 -1.09375,0.89583 -1.92189,2.17187 -2.48437,3.82812 -0.55209,1.64584 -0.82813,3.82292 -0.82813,6.53125 0,4.30209 0.75521,7.40625 2.26563,9.3125 1.2604,1.58334 2.99479,2.375 5.20312,2.375 1.67708,0 3.0625,-0.44791 4.15625,-1.34375 1.10417,-0.90625 1.9323,-2.18229 2.48437,-3.82812 0.55209,-1.65625 0.82813,-3.82813 0.82813,-6.51563 0,-2.27083 -0.17188,-4.07291 -0.51563,-5.40625 -0.34373,-1.34375 -0.8177,-2.47916 -1.42187,-3.40625 -0.60417,-0.9375 -1.3698,-1.65104 -2.29687,-2.14062 -0.92709,-0.5 -2.00521,-0.75 -3.23438,-0.75 z m 17.8125,0 c -1.66667,0 -3.05208,0.44791 -4.15625,1.34375 -1.09375,0.89583 -1.92189,2.17187 -2.48437,3.82812 -0.55209,1.64584 -0.82813,3.82292 -0.82813,6.53125 0,4.30209 0.75521,7.40625 2.26563,9.3125 1.2604,1.58334 2.99479,2.375 5.20312,2.375 1.67708,0 3.0625,-0.44791 4.15625,-1.34375 1.10417,-0.90625 1.9323,-2.18229 2.48437,-3.82812 0.55209,-1.65625 0.82813,-3.82813 0.82813,-6.51563 0,-2.27083 -0.17188,-4.07291 -0.51563,-5.40625 -0.34373,-1.34375 -0.8177,-2.47916 -1.42187,-3.40625 -0.60417,-0.9375 -1.3698,-1.65104 -2.29687,-2.14062 -0.92709,-0.5 -2.00521,-0.75 -3.23438,-0.75 z m 45.8125,0 c -0.48958,0.98958 -1.32292,2.01041 -2.5,3.0625 -1.17708,1.05208 -2.55208,1.94791 -4.125,2.6875 v 2.71875 c 0.875,-0.32292 1.85939,-0.80729 2.95312,-1.45313 1.10417,-0.64583 1.9948,-1.29166 2.67188,-1.9375 v 17.92188 h 2.8125 v -23 z m 140.89062,0 c -2.17707,0 -3.91145,0.56771 -5.20312,1.70312 -1.29167,1.125 -2.03646,2.76563 -2.23438,4.92188 l 2.89063,0.29687 c 0.0104,-1.4375 0.42189,-2.5625 1.23437,-3.375 0.8125,-0.8125 1.89585,-1.21875 3.25,-1.21875 1.28125,0 2.31771,0.38542 3.10938,1.15625 0.80208,0.76042 1.20312,1.69792 1.20312,2.8125 0,1.0625 -0.4375,2.19271 -1.3125,3.39063 -0.87498,1.1875 -2.55729,2.80208 -5.04687,4.84375 -1.60417,1.3125 -2.83333,2.46875 -3.6875,3.46875 -0.84375,1 -1.45833,2.01562 -1.84375,3.04687 -0.23958,0.625 -0.34896,1.27604 -0.32812,1.95313 h 15.14062 v -2.70313 h -11.23438 c 0.3125,-0.51041 0.70835,-1.01562 1.1875,-1.51562 0.47917,-0.51042 1.56252,-1.47396 3.25,-2.89063 2.02084,-1.70833 3.46355,-3.05208 4.32813,-4.03125 0.875,-0.97916 1.5,-1.91146 1.875,-2.79687 0.375,-0.88542 0.5625,-1.78646 0.5625,-2.70313 0,-1.80208 -0.64064,-3.3125 -1.92187,-4.53125 -1.28125,-1.21875 -3.02084,-1.82812 -5.21876,-1.82812 z m 26.54688,0 c -1.66667,0 -3.05208,0.44791 -4.15625,1.34375 -1.09375,0.89583 -1.92189,2.17187 -2.48437,3.82812 -0.55209,1.64584 -0.82813,3.82292 -0.82813,6.53125 0,4.30209 0.75521,7.40625 2.26563,9.3125 1.2604,1.58334 2.99479,2.375 5.20312,2.375 1.67708,0 3.0625,-0.44791 4.15625,-1.34375 1.10417,-0.90625 1.9323,-2.18229 2.48437,-3.82812 0.55209,-1.65625 0.82813,-3.82813 0.82813,-6.51563 0,-2.27083 -0.17188,-4.07291 -0.51563,-5.40625 -0.34373,-1.34375 -0.8177,-2.47916 -1.42187,-3.40625 -0.60417,-0.9375 -1.3698,-1.65104 -2.29687,-2.14062 -0.92709,-0.5 -2.00521,-0.75 -3.23438,-0.75 z m 17.8125,0 c -1.66667,0 -3.05208,0.44791 -4.15625,1.34375 -1.09375,0.89583 -1.92189,2.17187 -2.48437,3.82812 -0.55209,1.64584 -0.82813,3.82292 -0.82813,6.53125 0,4.30209 0.75521,7.40625 2.26563,9.3125 1.2604,1.58334 2.99479,2.375 5.20312,2.375 1.67708,0 3.0625,-0.44791 4.15625,-1.34375 1.10417,-0.90625 1.9323,-2.18229 2.48437,-3.82812 0.55209,-1.65625 0.82813,-3.82813 0.82813,-6.51563 0,-2.27083 -0.17188,-4.07291 -0.51563,-5.40625 -0.34373,-1.34375 -0.8177,-2.47916 -1.42187,-3.40625 -0.60417,-0.9375 -1.3698,-1.65104 -2.29687,-2.14062 -0.92709,-0.5 -2.00521,-0.75 -3.23438,-0.75 z m -220.53125,0.39062 v 2.70313 h 11.21875 c -1.42708,1.625 -2.77604,3.625 -4.04688,6 -1.2604,2.36458 -2.22917,4.82291 -2.90624,7.375 -0.67709,2.55208 -1.03127,4.72916 -1.0625,6.53125 h 2.89062 c 0.15625,-2.28125 0.51564,-4.38021 1.07812,-6.29688 0.78125,-2.71875 1.88543,-5.36458 3.3125,-7.9375 1.4375,-2.57291 2.88542,-4.63541 4.34376,-6.1875 v -2.1875 z m -28.375,1.9375 c 1.3125,0 2.40625,0.61979 3.28125,1.85938 0.88542,1.23958 1.32813,3.74479 1.32812,7.51562 0,3.75 -0.4427,6.25 -1.32812,7.5 -0.875,1.25 -1.95833,1.875 -3.25,1.875 -1.29167,0 -2.38022,-0.61979 -3.26562,-1.85937 -0.875,-1.25 -1.3125,-3.75521 -1.3125,-7.51563 0,-3.76041 0.48437,-6.33854 1.45312,-7.73437 0.77083,-1.09375 1.80208,-1.64063 3.09375,-1.64063 z m 17.8125,0 c 1.3125,0 2.40625,0.61979 3.28125,1.85938 0.88542,1.23958 1.32813,3.74479 1.32812,7.51562 0,3.75 -0.4427,6.25 -1.32812,7.5 -0.875,1.25 -1.95833,1.875 -3.25,1.875 -1.29167,0 -2.38022,-0.61979 -3.26562,-1.85937 -0.875,-1.25 -1.31251,-3.75521 -1.3125,-7.51563 0,-3.76041 0.48437,-6.33854 1.45312,-7.73437 0.77083,-1.09375 1.80208,-1.64063 3.09375,-1.64063 z m 213.25,0 c 1.3125,0 2.40625,0.61979 3.28125,1.85938 0.88542,1.23958 1.32813,3.74479 1.32812,7.51562 10e-6,3.75 -0.4427,6.25 -1.32812,7.5 -0.875,1.25 -1.95833,1.875 -3.25,1.875 -1.29167,0 -2.38022,-0.61979 -3.26562,-1.85937 -0.875,-1.25 -1.31251,-3.75521 -1.3125,-7.51563 0,-3.76041 0.48437,-6.33854 1.45312,-7.73437 0.77083,-1.09375 1.80208,-1.64063 3.09375,-1.64063 z m 17.8125,0 c 1.3125,0 2.40625,0.61979 3.28125,1.85938 0.88542,1.23958 1.32812,3.74479 1.32812,7.51562 0,3.75 -0.4427,6.25 -1.32812,7.5 -0.875,1.25 -1.95833,1.875 -3.25,1.875 -1.29167,0 -2.38022,-0.61979 -3.26562,-1.85937 -0.875,-1.25 -1.3125,-3.75521 -1.3125,-7.51563 0,-3.76041 0.48437,-6.33854 1.45312,-7.73437 0.77083,-1.09375 1.80208,-1.64063 3.09375,-1.64063 z m -201.29687,17.46875 v 3.20313 h 3.20312 v -3.20313 z m 168.75,0 v 3.20313 h 3.20312 v -3.20313 z M 182.51953,442.3125 V 579.75 h 18.1875 v -64.78125 h 71.4375 V 579.75 h 18.1875 V 442.3125 h -18.1875 V 498.75 h -71.4375 v -56.4375 z m 481.72656,14.43945 c -1.63281,0 -2.93359,0.42578 -3.90234,1.27735 -0.96875,0.84375 -1.52734,2.07422 -1.67578,3.6914 l 2.16797,0.22266 c 0.008,-1.07813 0.3164,-1.92188 0.92578,-2.53125 0.60937,-0.60938 1.42187,-0.91406 2.4375,-0.91406 0.96094,0 1.73828,0.28906 2.33203,0.86718 0.60156,0.57032 0.90234,1.27344 0.90234,2.10938 0,0.79687 -0.32812,1.64453 -0.98437,2.54297 -0.65625,0.89062 -1.91797,2.10156 -3.78516,3.63281 -1.20312,0.98438 -2.125,1.85156 -2.76562,2.60156 -0.63281,0.75 -1.09375,1.51172 -1.38282,2.28516 -0.17968,0.46875 -0.26171,0.95703 -0.24609,1.46484 H 669.625 v -2.02734 h -8.42578 c 0.23437,-0.38281 0.53125,-0.76172 0.89062,-1.13672 0.35938,-0.38281 1.17188,-1.10547 2.4375,-2.16797 1.51563,-1.28125 2.59766,-2.28906 3.2461,-3.02344 0.65625,-0.73437 1.125,-1.43359 1.40625,-2.09765 0.28125,-0.66406 0.42187,-1.33985 0.42187,-2.02735 0,-1.35156 -0.48047,-2.48437 -1.4414,-3.39843 -0.96094,-0.91407 -2.26563,-1.3711 -3.91407,-1.3711 z m -13.95703,9.97266 v 2.12109 h 6.48047 v -2.12109 z M 355.20703,477.9375 c -8.8125,0 -16.5,2.1875 -23.0625,6.5625 -6.5,4.375 -11.46875,10.59375 -14.90625,18.65625 -3.4375,8 -5.15625,16.75 -5.15625,26.25 0,13.8125 3.75,25.65625 11.25,35.53125 7.5,9.875 18.09375,14.8125 31.78125,14.8125 11,0 20.1875,-4.34375 27.5625,-13.03125 0.0625,11 -0.34375,18.21875 -1.21875,21.65625 -1.5,5.625 -4.375,10 -8.625,13.125 -4.25,3.125 -10.28125,4.6875 -18.09375,4.6875 -7.25,0 -12.96875,-1.5625 -17.15625,-4.6875 -3.125,-2.3125 -5.03125,-6 -5.71875,-11.0625 L 315.45703,588 c -0.25,10.75 3.28125,18.78125 10.59375,24.09375 7.3125,5.375 16.90625,8.0625 28.78125,8.0625 10,0 18.40625,-1.875 25.21875,-5.625 6.875,-3.75 11.875,-8.875 15,-15.375 3.1875,-6.4375 4.78125,-17.40625 4.78125,-32.90625 v -86.0625 h -15.5625 v 12 c -7.625,-9.5 -17.3125,-14.25 -29.0625,-14.25 z m 1.21875,13.96875 c 7.625,0 14.125,3.09375 19.5,9.28125 5.4375,6.1875 8.15625,15.375 8.15625,27.5625 0,12.75 -2.625,22.125 -7.875,28.125 -5.25,5.9375 -11.75,8.90625 -19.5,8.90625 -7.8125,0 -14.3125,-3 -19.5,-9 -5.1875,-6 -7.78125,-15.53125 -7.78125,-28.59375 0,-12 2.625,-21.03125 7.875,-27.09375 5.25,-6.125 11.625,-9.1875 19.125,-9.1875 z m 314.69922,14.8457 c -0.36719,0.74219 -0.99219,1.50782 -1.875,2.29688 -0.88281,0.78906 -1.91406,1.46094 -3.09375,2.01562 v 2.03907 c 0.65625,-0.24219 1.39453,-0.60547 2.21484,-1.08985 0.82813,-0.48437 1.4961,-0.96875 2.00391,-1.45312 v 13.4414 h 2.10938 v -17.25 z m -15.58594,3.11719 v 4.67578 h -4.67578 v 1.96875 h 4.67578 v 4.71094 h 1.99219 v -4.71094 h 4.67578 v -1.96875 h -4.67578 v -4.67578 z m 14.70703,46.88281 c -1.63281,0 -2.93359,0.42578 -3.90234,1.27735 -0.96875,0.84375 -1.52734,2.07422 -1.67578,3.6914 l 2.16797,0.22266 c 0.008,-1.07813 0.3164,-1.92188 0.92578,-2.53125 0.60937,-0.60938 1.42187,-0.91406 2.4375,-0.91406 0.96094,0 1.73828,0.28906 2.33203,0.86718 0.60156,0.57032 0.90234,1.27344 0.90234,2.10938 0,0.79687 -0.32812,1.64453 -0.98437,2.54297 -0.65625,0.89062 -1.91797,2.10156 -3.78516,3.63281 -1.20312,0.98438 -2.125,1.85156 -2.76562,2.60156 -0.63281,0.75 -1.09375,1.51172 -1.38282,2.28516 -0.17968,0.46875 -0.26171,0.95703 -0.24609,1.46484 H 675.625 v -2.02734 h -8.42578 c 0.23437,-0.38281 0.53125,-0.76172 0.89062,-1.13672 0.35938,-0.38281 1.17188,-1.10547 2.4375,-2.16797 1.51563,-1.28125 2.59766,-2.28906 3.2461,-3.02344 0.65625,-0.73437 1.125,-1.43359 1.40625,-2.09765 0.28125,-0.66406 0.42187,-1.33985 0.42187,-2.02735 0,-1.35156 -0.48047,-2.48437 -1.4414,-3.39843 -0.96094,-0.91407 -2.26563,-1.3711 -3.91407,-1.3711 z m -14.70703,3.11719 v 4.67578 h -4.67578 v 1.96875 h 4.67578 v 4.71094 h 1.99219 v -4.71094 h 4.67578 v -1.96875 h -4.67578 v -4.67578 z m -476.26172,86.86328 v 34.35938 h 4.38282 v -29.25 l 9.9375,29.25 h 4.10156 l 9.98437,-28.75782 v 28.75782 h 4.38282 v -34.35938 h -6.11719 l -8.22656,23.90625 c -0.82813,2.42188 -1.4375,4.25781 -1.82813,5.50781 -0.34375,-1.125 -0.89062,-2.82031 -1.64062,-5.08593 l -8.13282,-24.32813 z m 49.85157,8.90625 c -3.4375,0 -6.23438,1.15625 -8.39063,3.46875 -2.15625,2.3125 -3.23437,5.5625 -3.23437,9.75 0,4.04688 1.0625,7.19531 3.1875,9.44531 2.14062,2.23438 5.03125,3.35157 8.67187,3.35157 2.89063,0 5.26563,-0.70313 7.125,-2.10938 1.85938,-1.40625 3.13281,-3.38281 3.82031,-5.92969 l -4.35937,-0.53906 c -0.64063,1.78125 -1.50781,3.07813 -2.60156,3.89063 -1.09375,0.8125 -2.41407,1.21875 -3.96094,1.21875 -2.07813,0 -3.8125,-0.72657 -5.20313,-2.17969 -1.39062,-1.45313 -2.16406,-3.54688 -2.32031,-6.28125 h 18.5625 c 0.0156,-0.5 0.0234,-0.875 0.0234,-1.125 0,-4.10938 -1.05469,-7.29688 -3.16406,-9.5625 -2.10938,-2.26563 -4.82813,-3.39844 -8.15625,-3.39844 z m 25.64062,0 c -0.98437,0 -1.89062,0.28125 -2.71875,0.84375 -0.8125,0.5625 -1.70312,1.72656 -2.67187,3.49219 v -3.77344 h -3.79688 v 24.89063 h 4.21875 v -13.03125 c 0,-1.78125 0.23438,-3.42188 0.70313,-4.92188 0.3125,-0.98437 0.83593,-1.75 1.57031,-2.29687 0.73437,-0.5625 1.5625,-0.84375 2.48437,-0.84375 1.03125,0 2.0625,0.30468 3.09375,0.91406 l 1.45313,-3.91406 c -1.46875,-0.90625 -2.91406,-1.35938 -4.33594,-1.35938 z m 16.94531,0 c -2.14062,0 -4.125,0.50781 -5.95312,1.52344 -1.8125,1 -3.16406,2.50781 -4.05469,4.52344 -0.89062,2.01562 -1.33594,4.36718 -1.33594,7.05468 0,4.15625 1.03125,7.35157 3.09375,9.58594 2.07813,2.21875 4.82032,3.32813 8.22657,3.32813 2.71875,0 5.00781,-0.80469 6.86718,-2.41407 1.875,-1.625 3.03907,-3.86718 3.49219,-6.72656 l -4.14844,-0.53906 c -0.29687,2.10937 -1,3.67187 -2.10937,4.6875 -1.10938,1.01562 -2.49219,1.52344 -4.14844,1.52344 -2.0625,0 -3.73437,-0.75782 -5.01562,-2.27344 -1.28125,-1.51563 -1.92188,-3.94531 -1.92188,-7.28906 0,-3.29688 0.66406,-5.70313 1.99219,-7.21875 1.32812,-1.53125 3.05469,-2.29688 5.17969,-2.29688 1.40625,0 2.60156,0.42188 3.58593,1.26563 1,0.84375 1.69532,2.10156 2.08594,3.77343 l 4.10156,-0.63281 c -0.48437,-2.51562 -1.58593,-4.45312 -3.30468,-5.8125 -1.71875,-1.375 -3.92969,-2.0625 -6.63282,-2.0625 z m 49.80469,0 c -0.98437,0 -1.89062,0.28125 -2.71875,0.84375 -0.8125,0.5625 -1.70312,1.72656 -2.67187,3.49219 v -3.77344 h -3.79688 v 24.89063 h 4.21875 v -13.03125 c 0,-1.78125 0.23438,-3.42188 0.70313,-4.92188 0.3125,-0.98437 0.83593,-1.75 1.57031,-2.29687 0.73437,-0.5625 1.5625,-0.84375 2.48437,-0.84375 1.03125,0 2.0625,0.30468 3.09375,0.91406 l 1.45313,-3.91406 c -1.46875,-0.90625 -2.91406,-1.35938 -4.33594,-1.35938 z m -35.95312,0.5625 v 15.42188 c 0,1.79687 0.0859,3.10937 0.25781,3.9375 0.25,1.23437 0.67969,2.28125 1.28906,3.14062 0.625,0.84375 1.57031,1.54688 2.83594,2.10938 1.28125,0.5625 2.65625,0.84375 4.125,0.84375 3.32812,0 5.96094,-1.40625 7.89844,-4.21875 v 3.65625 h 3.77343 v -24.89063 h -4.21875 v 13.33594 c 0,2.125 -0.23437,3.75 -0.70312,4.875 -0.45313,1.10937 -1.23438,1.99219 -2.34375,2.64844 -1.10938,0.64062 -2.29688,0.96093 -3.5625,0.96093 -1.26563,0 -2.32813,-0.3125 -3.1875,-0.9375 -0.85938,-0.64062 -1.42188,-1.51562 -1.6875,-2.625 -0.17188,-0.76562 -0.25781,-2.25 -0.25781,-4.45312 v -13.80469 z m 40.45312,0 9.44531,24.9375 c -0.17187,0.45313 -0.29687,0.79688 -0.375,1.03125 -0.59375,1.67188 -1.02343,2.71875 -1.28906,3.14063 -0.35937,0.5625 -0.82031,1 -1.38281,1.3125 -0.5625,0.3125 -1.3125,0.46875 -2.25,0.46875 -0.6875,0 -1.49219,-0.125 -2.41406,-0.375 l 0.46875,3.96093 c 1,0.34375 1.90625,0.51563 2.71875,0.51563 1.34375,0 2.5,-0.32813 3.46875,-0.98438 0.96875,-0.64062 1.82812,-1.65625 2.57812,-3.04687 0.5625,-1.03125 1.35156,-2.91406 2.36719,-5.64844 l 9.46875,-25.3125 h -4.21875 l -5.32031,14.50781 c -0.67188,1.84375 -1.25,3.73438 -1.73438,5.67188 -0.53125,-2.01563 -1.13281,-3.9375 -1.80469,-5.76563 l -5.17968,-14.41406 z m -96.84375,2.90625 c 2.14063,0 3.88281,0.8125 5.22656,2.4375 0.875,1.04688 1.40625,2.61719 1.59375,4.71094 h -13.89843 c 0.14062,-2.17188 0.86718,-3.90625 2.17968,-5.20313 1.32813,-1.29687 2.96094,-1.94531 4.89844,-1.94531 z m 235.79492,67.16211 c -1.30368,0 -2.34176,0.33962 -3.11523,1.01953 -0.77348,0.67367 -1.21938,1.65606 -1.33789,2.94727 l 1.73047,0.17773 c 0.006,-0.8608 0.25369,-1.53299 0.74023,-2.01953 0.48654,-0.48654 1.13441,-0.73047 1.94531,-0.73047 0.76724,0 1.38727,0.22982 1.86133,0.69141 0.4803,0.45535 0.7207,1.01811 0.7207,1.68555 0,0.63624 -0.26118,1.31196 -0.78515,2.02929 -0.52397,0.7111 -1.53068,1.6778 -3.02149,2.90039 -0.9606,0.78595 -1.69749,1.47931 -2.20898,2.07813 -0.50525,0.59882 -0.87272,1.20668 -1.10352,1.82422 -0.14346,0.37426 -0.20974,0.76447 -0.19726,1.16992 h 9.0664 v -1.61914 h -6.72656 c 0.18713,-0.30565 0.42401,-0.6088 0.71094,-0.90821 0.28693,-0.30564 0.93481,-0.88214 1.94531,-1.73046 1.21012,-1.02299 2.07407,-1.82772 2.5918,-2.41407 0.52397,-0.58634 0.89849,-1.14362 1.12305,-1.67382 0.22455,-0.53021 0.33789,-1.07023 0.33789,-1.61915 0,-1.07912 -0.38511,-1.98308 -1.15235,-2.71289 -0.76723,-0.72981 -1.80884,-1.0957 -3.125,-1.0957 z m -75.56445,0.50586 c -0.29317,0.59258 -0.79123,1.20398 -1.49609,1.83399 -0.70486,0.63 -1.52881,1.16649 -2.47071,1.60937 v 1.62695 c 0.52397,-0.19337 1.11262,-0.4824 1.76758,-0.86914 0.6612,-0.38673 1.19611,-0.77342 1.60156,-1.16015 v 10.73047 h 1.6836 v -13.77149 z m 9.88086,0 c -0.99803,0 -1.82709,0.26825 -2.48828,0.80469 -0.65496,0.53644 -1.15145,1.29922 -1.48828,2.29101 -0.3306,0.98556 -0.4961,2.29031 -0.4961,3.91211 0,2.57617 0.45296,4.43468 1.35743,5.57618 0.75476,0.94812 1.79284,1.42187 3.11523,1.42187 1.00427,0 1.83332,-0.26825 2.48828,-0.80469 0.6612,-0.54268 1.15768,-1.30741 1.48828,-2.29297 0.3306,-0.99179 0.4961,-2.29106 0.4961,-3.90039 0,-1.35981 -0.10275,-2.43985 -0.3086,-3.23828 -0.20584,-0.80466 -0.48977,-1.48391 -0.85156,-2.03906 -0.36179,-0.56139 -0.81985,-0.98808 -1.375,-1.28125 -0.55516,-0.29941 -1.20145,-0.44922 -1.9375,-0.44922 z m -81.60156,0.50391 c -0.29317,0.59258 -0.79124,1.20397 -1.4961,1.83398 -0.70486,0.63001 -1.52881,1.1665 -2.4707,1.60938 v 1.6289 c 0.52397,-0.19337 1.11262,-0.48435 1.76758,-0.87109 0.66119,-0.38674 1.19416,-0.77342 1.59961,-1.16016 v 10.73242 h 1.68554 V 727.2793 Z m 11.11523,0.0566 -6.25976,8.88867 v 1.54492 h 5.95117 v 3.2832 h 1.68359 v -3.2832 h 1.85352 v -1.54492 h -1.85352 v -8.88867 z m 70.4668,0.83203 c 0.78595,0 1.44088,0.37295 1.96484,1.11523 0.53021,0.74229 0.79688,2.24196 0.79688,4.5 0,2.24557 -0.26667,3.74171 -0.79688,4.49024 -0.52396,0.74852 -1.17184,1.12304 -1.94531,1.12304 -0.77347,0 -1.42487,-0.37099 -1.95508,-1.11328 -0.52397,-0.74852 -0.78711,-2.24819 -0.78711,-4.5 0,-2.25181 0.29099,-3.79696 0.8711,-4.63281 0.46159,-0.65496 1.07808,-0.98242 1.85156,-0.98242 z m -70.77539,1.87305 v 6.18359 h -4.29492 z m -22.79102,6.5 c -1.74212,0 -3.09981,0.325 -4.07422,0.9746 -0.95964,0.63485 -1.63176,1.47045 -2.01562,2.50391 -0.28051,0.76772 -0.42188,1.93981 -0.42188,3.51953 v 2.50391 h -3.52148 v 3.09961 h 3.52148 v 20.41797 h 3.96485 v -20.41797 h 4.58398 v -3.09961 h -4.58398 v -2.17188 c 0,-1.41732 0.24998,-2.38365 0.75195,-2.90039 0.50197,-0.51673 1.35968,-0.77539 2.57031,-0.77539 0.73819,0 1.52089,0.075 2.34766,0.22266 l 0.59766,-3.47852 c -1.35827,-0.26574 -2.59866,-0.39843 -3.72071,-0.39843 z m 116.28711,0.42187 c -3.4252,0 -6.14924,1.24039 -8.17187,3.7207 -2.31792,2.84941 -3.47657,7.41094 -3.47657,13.68555 0,5.61024 1.04808,9.64101 3.14454,12.0918 2.09645,2.43602 4.8051,3.65429 8.12695,3.65429 1.94882,0 3.69113,-0.46636 5.22656,-1.39648 1.53543,-0.93012 2.73831,-2.26569 3.60938,-4.00781 0.88582,-1.75689 1.32812,-3.65401 1.32812,-5.69141 0,-3.10039 -0.9375,-5.6254 -2.8125,-7.57422 -1.86024,-1.96358 -4.11791,-2.94531 -6.77539,-2.94531 -1.52067,0 -2.97549,0.35384 -4.36328,1.0625 -1.3878,0.70866 -2.56184,1.79425 -3.52149,3.25586 0.0295,-3.24803 0.40549,-5.75092 1.12891,-7.50781 0.72343,-1.75689 1.71383,-3.09246 2.96875,-4.00782 0.95965,-0.70866 2.07407,-1.0625 3.34375,-1.0625 1.57973,0 2.90857,0.56827 3.98633,1.70508 0.64961,0.70866 1.15153,1.8452 1.50586,3.41016 l 3.96484,-0.31055 c -0.3248,-2.5246 -1.30653,-4.50151 -2.94531,-5.93359 -1.62402,-1.43209 -3.71344,-2.14844 -6.26758,-2.14844 z m -242.18555,0.13281 v 41.47852 h 8.79102 v -3.29883 h -4.80469 v -34.88086 h 4.80469 v -3.29883 z m 11.1836,0 11.07226,15.54688 -12.55664,16.91797 h 5.16016 l 8.15039,-11.31641 c 0.31004,-0.44291 0.8254,-1.25444 1.54883,-2.43555 0.4872,0.78248 0.96029,1.50556 1.41797,2.16993 l 8.17187,11.58203 h 5.31445 l -12.29101,-17.16211 11.40625,-15.30274 h -4.67383 l -6.5332,8.61524 c -0.98918,1.28445 -1.84494,2.51616 -2.56836,3.69726 -0.51673,-0.93011 -1.38789,-2.25896 -2.61328,-3.98632 l -5.89063,-8.32618 z m 54.72265,0 v 3.29883 h 4.80469 v 34.88086 h -4.80469 v 3.29883 H 254.5 V 737.0957 Z m 39.6836,0 -14.81446,21.03907 v 3.65234 h 14.08399 v 7.77344 h 3.98633 v -7.77344 h 4.38476 v -3.65234 h -4.38476 V 737.0957 Z m 90.82031,0 v 11.64844 c -0.6939,-0.95965 -1.59389,-1.73562 -2.70117,-2.32617 -1.10728,-0.60532 -2.36979,-0.90625 -3.78711,-0.90625 -1.93406,0 -3.68504,0.50864 -5.25,1.52734 -1.56496,1.0187 -2.73705,2.48696 -3.51953,4.40625 -0.78248,1.90453 -1.17383,4.03147 -1.17383,6.37891 0,2.40649 0.4269,4.54015 1.2832,6.40039 0.87107,1.84547 2.08934,3.28489 3.6543,4.31836 1.57972,1.03346 3.30664,1.54883 5.18164,1.54883 2.8937,0 5.08698,-1.16537 6.57813,-3.49805 v 2.9668 h 3.69726 V 737.0957 Z m -37.49219,0.44336 -3.14453,16.67578 3.74219,0.48633 c 0.59055,-0.93012 1.40208,-1.68398 2.43555,-2.25976 1.03346,-0.59055 2.19211,-0.88477 3.47656,-0.88477 2.06693,0 3.73617,0.65673 5.00586,1.9707 1.28445,1.31398 1.92578,3.10724 1.92578,5.38086 0,2.39174 -0.66345,4.31097 -1.99219,5.75782 -1.32874,1.44685 -2.95375,2.17187 -4.87304,2.17187 -1.59449,0 -2.9589,-0.5106 -4.09571,-1.5293 -1.12205,-1.03346 -1.8384,-2.56806 -2.14844,-4.60547 l -4.18554,0.35352 c 0.26575,2.7313 1.32726,4.92458 3.1875,6.57813 1.875,1.65354 4.28943,2.48046 7.24219,2.48046 3.60236,0 6.44565,-1.3154 8.52734,-3.94335 1.7126,-2.14075 2.56836,-4.6792 2.56836,-7.61719 0,-3.08563 -0.97501,-5.61064 -2.92383,-7.57422 -1.94882,-1.96358 -4.34114,-2.94531 -7.17578,-2.94531 -2.14075,0 -4.18399,0.67884 -6.13281,2.03711 l 1.74804,-8.72461 h 12.95508 v -3.8086 z m -54.05859,5.95703 v 14.63868 h -10.16406 z m -52.41797,2.01563 c -3.24803,0 -5.89033,1.0923 -7.92773,3.27734 -2.03741,2.18504 -3.05664,5.25425 -3.05664,9.21094 0,3.82382 1.00384,6.7998 3.01171,8.92578 2.02264,2.11122 4.7534,3.16602 8.19336,3.16602 2.7313,0 4.97554,-0.66345 6.73243,-1.99219 1.75689,-1.32874 2.95976,-3.19702 3.60937,-5.60352 l -4.11914,-0.50976 c -0.60531,1.68307 -1.42357,2.91002 -2.45703,3.67773 -1.03347,0.76772 -2.28253,1.15039 -3.74414,1.15039 -1.96358,0 -3.60204,-0.68556 -4.91602,-2.05859 -1.31397,-1.37303 -2.04377,-3.35189 -2.1914,-5.93555 h 17.53906 c 0.0148,-0.47244 0.0215,-0.82628 0.0215,-1.0625 0,-3.88287 -0.99517,-6.89441 -2.98828,-9.03515 -1.99311,-2.14075 -4.56234,-3.21094 -7.70703,-3.21094 z m 212.35352,0 c -1.2254,0 -2.37537,0.16152 -3.45313,0.48633 -1.06299,0.31004 -1.90531,0.69466 -2.52539,1.15234 -0.82677,0.59055 -1.4835,1.33574 -1.9707,2.23633 -0.47244,0.88583 -0.70899,1.85216 -0.70899,2.90039 0,1.15157 0.2875,2.20832 0.86328,3.16797 0.59056,0.94488 1.44632,1.69007 2.56836,2.23633 1.13681,0.53149 3.16857,1.1661 6.0918,1.90429 2.17028,0.54626 3.52796,0.99723 4.07422,1.35157 0.78248,0.51673 1.17383,1.22441 1.17383,2.125 0,1.00393 -0.4423,1.88181 -1.32813,2.63476 -0.88582,0.73819 -2.24546,1.10742 -4.07617,1.10742 -1.81594,0 -3.23325,-0.42018 -4.25195,-1.26172 -1.00394,-0.84153 -1.61644,-2.05308 -1.83789,-3.63281 l -3.94141,0.6211 c 0.44291,2.49507 1.46215,4.37679 3.05664,5.64648 1.60925,1.26969 3.94195,1.9043 6.99805,1.9043 1.84547,0 3.49737,-0.31633 4.95898,-0.95118 1.46162,-0.6496 2.57799,-1.55827 3.34571,-2.7246 0.78248,-1.18111 1.17187,-2.43494 1.17187,-3.76368 0,-1.35826 -0.31633,-2.49675 -0.95117,-3.41211 -0.63484,-0.91535 -1.51272,-1.60763 -2.63477,-2.08007 -1.10728,-0.48721 -3.07074,-1.10838 -5.89062,-1.86133 -1.94882,-0.5315 -3.12286,-0.86994 -3.52149,-1.01758 -0.69389,-0.28051 -1.20449,-0.6363 -1.52929,-1.06445 -0.32481,-0.41339 -0.48633,-0.8778 -0.48633,-1.39453 0,-0.81201 0.39135,-1.51969 1.17383,-2.125 0.78248,-0.60532 2.08921,-0.90821 3.91992,-0.90821 1.5502,0 2.74635,0.33845 3.58789,1.01758 0.8563,0.67913 1.37166,1.62531 1.54883,2.83594 l 3.89844,-0.5332 c -0.25099,-1.52067 -0.70868,-2.73027 -1.37305,-3.63086 -0.66437,-0.91536 -1.69705,-1.63843 -3.09961,-2.16993 -1.3878,-0.53149 -3.00609,-0.79687 -4.85156,-0.79687 z m -212.31055,3.27734 c 2.02264,0 3.66977,0.7673 4.93945,2.30274 0.82677,0.98917 1.3287,2.47282 1.50586,4.45117 h -13.13281 c 0.13287,-2.05217 0.82039,-3.69062 2.06055,-4.91602 1.25492,-1.22539 2.79624,-1.83789 4.62695,-1.83789 z m 137.8125,0.0215 c 1.81594,0 3.34383,0.75386 4.58398,2.25976 1.24016,1.50591 1.86133,3.86744 1.86133,7.08594 0,2.92323 -0.6125,5.10112 -1.83789,6.5332 -1.21063,1.41733 -2.68756,2.125 -4.42969,2.125 -1.72736,0 -3.2264,-0.74518 -4.49609,-2.23633 -1.26969,-1.49114 -1.9043,-3.74209 -1.9043,-6.7539 0,-3.11516 0.59039,-5.3969 1.77149,-6.84375 1.19586,-1.44685 2.67952,-2.16992 4.45117,-2.16992 z m 51.29101,3.21093 c 1.81595,0 3.32172,0.65001 4.51758,1.94922 1.19587,1.28445 1.79297,3.04888 1.79297,5.29297 0,2.33268 -0.60577,4.17689 -1.8164,5.53516 -1.21063,1.35827 -2.65678,2.03906 -4.33985,2.03906 -1.15157,0 -2.25255,-0.325 -3.30078,-0.97461 -1.04823,-0.66437 -1.86648,-1.62398 -2.45703,-2.8789 -0.57579,-1.25493 -0.86328,-2.57033 -0.86328,-3.94336 0,-2.09646 0.62594,-3.78587 1.88086,-5.07032 1.25492,-1.29921 2.78475,-1.94922 4.58593,-1.94922 z"
       id="flowRoot817"
       transform="scale(0.26458333)"
       inkscape:connector-curvature="0" />
    <text
       xml:space="preserve"
       style="font-style:normal;font-variant:normal;font-weight:normal;font-stretch:normal;font-size:10.58333302px;line-height:1.25;font-family:Arial;-inkscape-font-specification:Arial;letter-spacing:0px;word-spacing:0px;fill:#000000;fill-opacity:1;stroke:none;stroke-width:0.26458332"
       x="107.97688"
       y="100.82417"
       id="text859"><tspan
         sodipodi:role="line"
         id="tspan857"
         x="107.97688"
         y="110.35715"
         style="stroke-width:0.26458332" /></text>
  </g>
</svg>
