<?xml version="1.0" encoding="UTF-8" standalone="no"?>
<!-- Created with Inkscape (http://www.inkscape.org/) -->

<svg
   xmlns:dc="http://purl.org/dc/elements/1.1/"
   xmlns:cc="http://creativecommons.org/ns#"
   xmlns:rdf="http://www.w3.org/1999/02/22-rdf-syntax-ns#"
   xmlns:svg="http://www.w3.org/2000/svg"
   xmlns="http://www.w3.org/2000/svg"
   xmlns:xlink="http://www.w3.org/1999/xlink"
   xmlns:sodipodi="http://sodipodi.sourceforge.net/DTD/sodipodi-0.dtd"
   xmlns:inkscape="http://www.inkscape.org/namespaces/inkscape"
   width="155.5256mm"
   height="149.48297mm"
   viewBox="0 0 155.5256 149.48297"
   version="1.1"
   id="svg8"
   sodipodi:docname="hg-periodic_v3.svg"
   inkscape:version="0.92.4 (5da689c313, 2019-01-14)">
  <defs
     id="defs2">
    <linearGradient
       inkscape:collect="always"
       id="linearGradient819">
      <stop
         style="stop-color:#000000;stop-opacity:1;"
         offset="0"
         id="stop815" />
      <stop
         style="stop-color:#000000;stop-opacity:0;"
         offset="1"
         id="stop817" />
    </linearGradient>
    <radialGradient
       inkscape:collect="always"
       xlink:href="#linearGradient819"
       id="radialGradient821"
       cx="112.64058"
       cy="139.79848"
       fx="112.64058"
       fy="139.79848"
       r="77.762802"
       gradientTransform="matrix(1.3894764,-1.2034642,1.0334792,1.1932179,-188.34967,108.54735)"
       gradientUnits="userSpaceOnUse" />
  </defs>
  <sodipodi:namedview
     id="base"
     pagecolor="#ffffff"
     bordercolor="#666666"
     borderopacity="1.0"
     inkscape:pageopacity="0.0"
     inkscape:pageshadow="2"
     inkscape:zoom="0.7890625"
     inkscape:cx="460.16838"
     inkscape:cy="105.82675"
     inkscape:document-units="mm"
     inkscape:current-layer="layer1"
     showgrid="false"
     inkscape:window-width="1920"
     inkscape:window-height="1017"
     inkscape:window-x="-8"
     inkscape:window-y="-8"
     inkscape:window-maximized="1"
     fit-margin-top="0"
     fit-margin-left="0"
     fit-margin-right="0"
     fit-margin-bottom="0" />
  <metadata
     id="metadata5">
    <rdf:RDF>
      <cc:Work
         rdf:about="">
        <dc:format>image/svg+xml</dc:format>
        <dc:type
           rdf:resource="http://purl.org/dc/dcmitype/StillImage" />
        <dc:title></dc:title>
      </cc:Work>
    </rdf:RDF>
  </metadata>
  <g
     inkscape:label="Layer 1"
     inkscape:groupmode="layer"
     id="layer1"
     transform="translate(-34.877782,-65.05699)">
    <text
       xml:space="preserve"
       style="font-style:normal;font-variant:normal;font-weight:normal;font-stretch:normal;font-size:10.58333302px;line-height:1.25;font-family:Arial;-inkscape-font-specification:Arial;letter-spacing:0px;word-spacing:0px;fill:#000000;fill-opacity:1;stroke:none;stroke-width:0.26458332"
       x="107.97688"
       y="100.82417"
       id="text859"><tspan
         sodipodi:role="line"
         id="tspan857"
         x="107.97688"
         y="110.35715"
         style="stroke-width:0.26458332" /></text>
    <path
       id="path821"
       style="fill:none;stroke:url(#radialGradient821);stroke-width:0.26512796px;stroke-linecap:butt;stroke-linejoin:miter;stroke-opacity:1"
       d="M 35.010346,65.236874 V 214.4074 H 190.27082 V 65.189554 H 35.010346 Z m 126.186534,9.021642 c -1.57923,0 -2.84427,0.450617 -3.79512,1.351854 -0.95085,0.901237 -1.42627,2.013315 -1.42627,3.336232 0,0.876432 0.22324,1.628841 0.66973,2.257226 0.44648,0.628385 1.13274,1.112076 2.05879,1.451073 -1.10795,0.289388 -1.96371,0.835091 -2.56729,1.637109 -0.59531,0.79375 -0.89297,1.781805 -0.89297,2.964162 0,1.5875 0.54984,2.914549 1.64951,3.981151 1.09968,1.058333 2.54662,1.5875 4.34082,1.5875 1.79421,0 3.24115,-0.529167 4.34082,-1.5875 1.09968,-1.058334 1.64952,-2.364714 1.64952,-3.919141 0,-1.124479 -0.29353,-2.091862 -0.88057,-2.902148 -0.57878,-0.810287 -1.42627,-1.397331 -2.54248,-1.761133 0.90124,-0.338997 1.57096,-0.818555 2.00918,-1.438672 0.44648,-0.628385 0.66973,-1.364258 0.66973,-2.207617 0,-1.322917 -0.4837,-2.44326 -1.45108,-3.361034 -0.96738,-0.926042 -2.24482,-1.389062 -3.83232,-1.389062 z m 14.13867,0 c -1.32292,0 -2.42259,0.355534 -3.29902,1.066601 -0.86817,0.711068 -1.52549,1.723925 -1.97198,3.038573 -0.43821,1.30638 -0.65732,3.03444 -0.65732,5.18418 0,3.414778 0.59944,5.878711 1.79834,7.391796 1.00045,1.256771 2.37712,1.885157 4.12998,1.885157 1.33118,0 2.43086,-0.355534 3.29902,-1.066602 0.87644,-0.719336 1.53376,-1.732193 1.97197,-3.038573 0.43822,-1.314648 0.65733,-3.038575 0.65733,-5.171778 0,-1.802474 -0.13643,-3.232878 -0.40928,-4.291211 -0.27285,-1.066602 -0.64905,-1.967839 -1.12861,-2.703711 -0.47956,-0.744141 -1.08727,-1.310513 -1.82315,-1.69912 -0.73587,-0.396875 -1.59163,-0.595312 -2.56728,-0.595312 z M 50.286335,75.872887 c -0.864029,0 -1.552358,0.225308 -2.064989,0.675928 -0.51263,0.446484 -0.80822,1.097608 -0.886769,1.953369 l 1.147217,0.117821 c 0.0041,-0.570508 0.167431,-1.016992 0.489892,-1.339453 0.322461,-0.322461 0.752409,-0.48369 1.289844,-0.48369 0.508497,0 0.919842,0.152961 1.234035,0.458885 0.318326,0.301792 0.477488,0.673862 0.477488,1.116211 0,0.42168 -0.173632,0.870233 -0.520898,1.345655 -0.347266,0.471289 -1.014923,1.112078 -2.002978,1.922365 -0.636654,0.520898 -1.124479,0.979784 -1.463476,1.376659 -0.334862,0.396875 -0.578776,0.799951 -0.731737,1.209227 -0.09509,0.248047 -0.138494,0.506431 -0.130226,0.775148 h 6.008936 V 83.928208 H 48.67403 c 0.124023,-0.20257 0.28112,-0.403074 0.471289,-0.601511 0.190169,-0.202573 0.620117,-0.584978 1.289844,-1.147218 0.802018,-0.677995 1.374595,-1.211297 1.717725,-1.599904 0.347266,-0.388606 0.595313,-0.758608 0.744141,-1.110009 0.148828,-0.351398 0.223242,-0.709001 0.223242,-1.072803 0,-0.7152 -0.254249,-1.314648 -0.762744,-1.798339 -0.508497,-0.483692 -1.198893,-0.725537 -2.071192,-0.725537 z m 7.013527,0 c -0.661458,0 -1.211297,0.177768 -1.649513,0.533302 -0.434081,0.355534 -0.762744,0.861962 -0.985986,1.519285 -0.219109,0.65319 -0.328663,1.517221 -0.328663,2.592091 0,1.707388 0.299723,2.939354 0.899171,3.695898 0.500227,0.628386 1.188559,0.942579 2.064991,0.942579 0.665591,0 1.21543,-0.177769 1.64951,-0.533303 0.438216,-0.359666 0.766879,-0.866095 0.985986,-1.519285 0.219109,-0.657325 0.328663,-1.519287 0.328663,-2.585889 0,-0.901237 -0.06821,-1.61644 -0.20464,-2.145607 -0.136424,-0.533299 -0.324527,-0.983919 -0.564306,-1.351854 -0.239778,-0.37207 -0.543636,-0.655256 -0.911571,-0.849561 -0.367938,-0.198438 -0.795817,-0.297656 -1.283642,-0.297656 z m 7.069336,0 c -0.661459,0 -1.211297,0.177768 -1.649513,0.533302 -0.434081,0.355534 -0.762744,0.861962 -0.985986,1.519285 -0.219109,0.65319 -0.328663,1.517221 -0.328663,2.592091 0,1.707388 0.299723,2.939354 0.899171,3.695898 0.500226,0.628386 1.188558,0.942579 2.064991,0.942579 0.665591,0 1.215429,-0.177769 1.64951,-0.533303 0.438216,-0.359666 0.766879,-0.866095 0.985986,-1.519285 0.219109,-0.657325 0.328663,-1.519287 0.328663,-2.585889 0,-0.901237 -0.06821,-1.61644 -0.20464,-2.145607 -0.136424,-0.533299 -0.324527,-0.983919 -0.564306,-1.351854 -0.239778,-0.37207 -0.543636,-0.655256 -0.911571,-0.849561 -0.367938,-0.198438 -0.795817,-0.297656 -1.283642,-0.297656 z m 17.555516,0 c -0.818554,0 -1.500684,0.28112 -2.046388,0.843359 -0.541567,0.56224 -0.812352,1.304314 -0.812352,2.22622 0,0.892969 0.26045,1.612305 0.781349,2.158008 0.520898,0.545703 1.157552,0.818555 1.90996,0.818555 0.450618,0 0.868165,-0.109554 1.252636,-0.328661 0.388607,-0.223242 0.694531,-0.51263 0.917773,-0.868164 0.0041,0.09922 0.0062,0.173633 0.0062,0.223243 0,0.46302 -0.05581,0.917773 -0.167431,1.364257 -0.111623,0.446485 -0.250116,0.802019 -0.415481,1.066602 -0.165365,0.260448 -0.378269,0.46922 -0.63872,0.626316 -0.256315,0.157097 -0.556038,0.235646 -0.899171,0.235646 -0.401007,0 -0.72967,-0.113689 -0.985985,-0.341064 -0.256315,-0.227377 -0.429948,-0.593246 -0.520899,-1.097608 l -1.072803,0.09922 c 0.09095,0.715201 0.361736,1.271241 0.812355,1.668116 0.450618,0.392739 1.03146,0.589111 1.742528,0.589111 0.669726,0 1.252638,-0.179835 1.748732,-0.539502 0.500226,-0.359669 0.876432,-0.882634 1.128611,-1.568897 0.252183,-0.690398 0.378273,-1.61644 0.378273,-2.778125 0,-1.116211 -0.128157,-1.967838 -0.384472,-2.554883 -0.252182,-0.591179 -0.624252,-1.045932 -1.116211,-1.364257 -0.487825,-0.318329 -1.027329,-0.477491 -1.618506,-0.477491 z m -8.849071,0.161232 -0.880568,4.66948 1.047999,0.136427 c 0.165365,-0.260451 0.39274,-0.471289 0.682128,-0.632521 0.289388,-0.165364 0.613918,-0.248047 0.973584,-0.248047 0.578776,0 1.045932,0.18397 1.401466,0.551905 0.359667,0.367938 0.539502,0.870231 0.539502,1.506884 0,0.669727 -0.186037,1.207162 -0.558107,1.612305 -0.37207,0.405143 -0.826823,0.607716 -1.364258,0.607716 -0.446484,0 -0.828889,-0.142626 -1.147215,-0.427881 -0.314192,-0.289388 -0.514699,-0.719336 -0.601514,-1.289844 l -1.172022,0.09922 c 0.07441,0.764812 0.37207,1.378728 0.892968,1.841748 0.525034,0.463021 1.20096,0.694532 2.027783,0.694532 1.008724,0 1.804543,-0.367938 2.387452,-1.10381 0.479557,-0.599446 0.719336,-1.310513 0.719336,-2.133203 0,-0.864029 -0.272852,-1.570964 -0.818555,-2.1208 -0.545703,-0.549838 -1.21543,-0.824756 -2.00918,-0.824756 -0.599445,0 -1.172022,0.190169 -1.717725,0.570507 l 0.489895,-2.44326 h 3.627683 V 76.03412 Z m 88.146037,0.05994 c 0.84336,0 1.54616,0.281119 2.1084,0.843359 0.57051,0.553971 0.85576,1.240234 0.85576,2.058789 0,0.785482 -0.27698,1.451073 -0.83095,1.996776 -0.54571,0.537435 -1.24851,0.806154 -2.1084,0.806154 -0.8847,0 -1.60404,-0.272852 -2.15801,-0.818555 -0.55397,-0.545703 -0.83096,-1.248503 -0.83096,-2.108399 0,-0.760677 0.28112,-1.413867 0.84336,-1.95957 0.56224,-0.545703 1.26917,-0.818554 2.1208,-0.818554 z m 14.08906,0.01241 c 1.0418,0 1.90997,0.491961 2.6045,1.475881 0.7028,0.983919 1.05419,2.972427 1.05419,5.965526 0,2.976562 -0.35139,4.960937 -1.05419,5.953125 -0.69453,0.992187 -1.55443,1.488281 -2.57969,1.488281 -1.02526,0 -1.88929,-0.491959 -2.59209,-1.475878 -0.69453,-0.992187 -1.0418,-2.980698 -1.0418,-5.965528 0,-2.984831 0.38448,-5.031216 1.15342,-6.139159 0.61185,-0.868164 1.4304,-1.302248 2.45566,-1.302248 z M 57.287458,76.79687 c 0.520899,0 0.954982,0.24598 1.302248,0.737939 0.351398,0.491961 0.527097,1.486215 0.527097,2.982764 0,1.488281 -0.175699,2.480469 -0.527097,2.976562 -0.347266,0.496094 -0.777214,0.744141 -1.289844,0.744141 -0.51263,0 -0.944647,-0.24598 -1.296046,-0.737939 -0.347265,-0.496093 -0.520898,-1.49035 -0.520898,-2.982764 0,-1.492417 0.192236,-2.515608 0.57671,-3.069579 0.305924,-0.434084 0.7152,-0.651124 1.22783,-0.651124 z m 7.069336,0 c 0.520899,0 0.954982,0.24598 1.302248,0.737939 0.351398,0.491961 0.527097,1.486215 0.527097,2.982764 0,1.488281 -0.175699,2.480469 -0.527097,2.976562 -0.347266,0.496094 -0.777214,0.744141 -1.289844,0.744141 -0.51263,0 -0.944647,-0.24598 -1.296046,-0.737939 -0.347265,-0.496093 -0.520898,-1.49035 -0.520898,-2.982764 0,-1.492417 0.192235,-2.515608 0.576709,-3.069579 0.305925,-0.434084 0.715201,-0.651124 1.227831,-0.651124 z m 17.704345,0 c 0.479557,0 0.888836,0.188103 1.227833,0.564306 0.34313,0.376206 0.514697,0.8847 0.514697,1.525489 0,0.640787 -0.167431,1.143082 -0.502296,1.506885 -0.330729,0.359666 -0.754475,0.539501 -1.271238,0.539501 -0.51263,0 -0.944647,-0.179835 -1.296046,-0.539501 -0.347265,-0.363803 -0.520898,-0.835092 -0.520898,-1.413868 0,-0.644921 0.183967,-1.169955 0.551905,-1.575099 0.367935,-0.405143 0.799949,-0.607713 1.296043,-0.607713 z m 79.123331,6.825422 c 1.07487,0 1.96784,0.351401 2.67891,1.0542 0.71934,0.7028 1.07901,1.591633 1.07901,2.666503 0,1.058333 -0.34727,1.930633 -1.0418,2.616896 -0.69453,0.686263 -1.5751,1.029393 -2.6417,1.029393 -0.68626,0 -1.32705,-0.161229 -1.92236,-0.48369 -0.59532,-0.330729 -1.04594,-0.79375 -1.35186,-1.389063 -0.29766,-0.595312 -0.44648,-1.211297 -0.44648,-1.84795 0,-1.041797 0.34313,-1.909961 1.02939,-2.604492 0.69453,-0.694532 1.56683,-1.041797 2.61689,-1.041797 z m -92.083779,0.107487 v 1.271241 h 1.271241 V 83.729779 Z M 49.179426,96.876774 c -0.129534,0.261826 -0.350022,0.531921 -0.661458,0.810286 -0.311436,0.278363 -0.675238,0.515384 -1.091406,0.711068 v 0.719336 c 0.23151,-0.08544 0.491964,-0.213596 0.781346,-0.384474 0.292145,-0.170876 0.527791,-0.341752 0.706935,-0.512631 v 4.741831 h 0.744141 v -6.085416 z m 4.365625,0 c -0.440973,0 -0.807529,0.118509 -1.099674,0.355533 -0.289388,0.237022 -0.5085,0.574641 -0.657323,1.012857 -0.146074,0.435462 -0.219109,1.011481 -0.219109,1.72806 0,1.138266 0.199816,1.959566 0.599448,2.463936 0.33348,0.41892 0.792371,0.62838 1.376658,0.62838 0.443728,0 0.810287,-0.11851 1.099675,-0.35553 0.292145,-0.23978 0.511254,-0.5774 0.657323,-1.01286 0.146074,-0.43822 0.219109,-1.01286 0.219109,-1.723926 0,-0.600824 -0.04548,-1.077624 -0.136427,-1.430404 -0.09095,-0.355533 -0.21635,-0.655944 -0.376203,-0.901237 -0.159853,-0.248046 -0.362426,-0.436837 -0.607714,-0.566372 -0.245292,-0.132292 -0.530545,-0.198437 -0.855763,-0.198437 z m 4.712891,0 c -0.440973,0 -0.80753,0.118509 -1.099674,0.355533 -0.289389,0.237022 -0.508501,0.574641 -0.657323,1.012857 -0.146074,0.435462 -0.21911,1.011481 -0.21911,1.72806 0,1.138266 0.199816,1.959566 0.599448,2.463936 0.333481,0.41892 0.792372,0.62838 1.376659,0.62838 0.443727,0 0.810286,-0.11851 1.099674,-0.35553 0.292145,-0.23978 0.511255,-0.5774 0.657323,-1.01286 0.146074,-0.43822 0.21911,-1.01286 0.21911,-1.723926 0,-0.600824 -0.04548,-1.077624 -0.136427,-1.430404 -0.09095,-0.355533 -0.21635,-0.655944 -0.376203,-0.901237 -0.159854,-0.248046 -0.362427,-0.436837 -0.607714,-0.566372 -0.245293,-0.132292 -0.530545,-0.198437 -0.855763,-0.198437 z m 12.121224,0 c -0.129535,0.261826 -0.350023,0.531921 -0.661459,0.810286 -0.311435,0.278363 -0.675237,0.515384 -1.091406,0.711068 v 0.719336 c 0.231511,-0.08544 0.491964,-0.213596 0.781347,-0.384474 0.292145,-0.170876 0.52779,-0.341752 0.706934,-0.512631 v 4.741831 h 0.744141 v -6.085416 z m 37.277314,0 c -0.57602,0 -1.03491,0.150206 -1.37666,0.450617 -0.34176,0.297656 -0.53882,0.731739 -0.59118,1.302247 l 0.76481,0.07855 c 0.003,-0.380339 0.11162,-0.677995 0.32659,-0.892969 0.21498,-0.214974 0.50161,-0.322461 0.8599,-0.322461 0.339,0 0.61323,0.101976 0.82269,0.305925 0.21222,0.201194 0.31832,0.449241 0.31832,0.74414 0,0.28112 -0.11575,0.580155 -0.34726,0.897105 -0.23151,0.314192 -0.67662,0.741382 -1.33532,1.281572 -0.42444,0.34727 -0.74965,0.65319 -0.97565,0.91777 -0.22324,0.26459 -0.38585,0.5333 -0.48783,0.80615 -0.0634,0.16537 -0.0923,0.33762 -0.0868,0.51677 h 4.00596 v -0.7152 h -2.97243 c 0.0827,-0.13505 0.18741,-0.26872 0.31419,-0.40101 0.12678,-0.13505 0.41341,-0.38999 0.85989,-0.76481 0.53468,-0.452 0.9164,-0.80753 1.14515,-1.0666 0.23152,-0.259071 0.39688,-0.505742 0.4961,-0.740007 0.0992,-0.234267 0.14883,-0.472668 0.14883,-0.715203 0,-0.476801 -0.16951,-0.876432 -0.5085,-1.198893 -0.339,-0.322461 -0.79926,-0.48369 -1.38079,-0.48369 z m 7.02386,0 c -0.44098,0 -0.80753,0.118509 -1.09968,0.355533 -0.28939,0.237022 -0.5085,0.574641 -0.65732,1.012857 -0.14607,0.435462 -0.21911,1.011481 -0.21911,1.72806 0,1.138266 0.19982,1.959566 0.59945,2.463936 0.33348,0.41892 0.79237,0.62838 1.37666,0.62838 0.44372,0 0.81028,-0.11851 1.09967,-0.35553 0.29215,-0.23978 0.51126,-0.5774 0.65732,-1.01286 0.14608,-0.43822 0.21911,-1.01286 0.21911,-1.723926 0,-0.600824 -0.0455,-1.077624 -0.13642,-1.430404 -0.091,-0.355533 -0.21635,-0.655944 -0.37621,-0.901237 -0.15985,-0.248046 -0.36242,-0.436837 -0.60771,-0.566372 -0.24529,-0.132292 -0.53055,-0.198437 -0.85576,-0.198437 z m 4.71289,0 c -0.44098,0 -0.80753,0.118509 -1.09968,0.355533 -0.28938,0.237022 -0.5085,0.574641 -0.65732,1.012857 -0.14607,0.435462 -0.21911,1.011481 -0.21911,1.72806 0,1.138266 0.19982,1.959566 0.59945,2.463936 0.33348,0.41892 0.79237,0.62838 1.37666,0.62838 0.44373,0 0.81028,-0.11851 1.09967,-0.35553 0.29215,-0.23978 0.51126,-0.5774 0.65733,-1.01286 0.14607,-0.43822 0.2191,-1.01286 0.2191,-1.723926 0,-0.600824 -0.0455,-1.077624 -0.13642,-1.430404 -0.091,-0.355533 -0.21635,-0.655944 -0.37621,-0.901237 -0.15985,-0.248046 -0.36242,-0.436837 -0.60771,-0.566372 -0.24529,-0.132292 -0.53054,-0.198437 -0.85576,-0.198437 z m -58.348895,0.103351 v 0.715203 h 2.968294 c -0.377581,0.429948 -0.734494,0.959115 -1.070737,1.5875 -0.33348,0.625629 -0.589801,1.276062 -0.768942,1.951302 -0.179147,0.67524 -0.272857,1.25126 -0.28112,1.72806 h 0.76481 c 0.04134,-0.60358 0.13643,-1.15893 0.285252,-1.66605 0.206706,-0.71934 0.498854,-1.419378 0.876433,-2.10013 0.380338,-0.680749 0.763434,-1.226452 1.149286,-1.637109 v -0.578776 z m -7.507552,0.51263 c 0.347266,0 0.636654,0.163986 0.868164,0.491961 0.234268,0.327972 0.351401,0.990809 0.351399,1.988508 0,0.992186 -0.117131,1.653646 -0.351399,1.984376 -0.23151,0.33073 -0.518141,0.49609 -0.859896,0.49609 -0.341754,0 -0.629766,-0.16398 -0.864028,-0.49196 -0.231511,-0.33072 -0.347266,-0.99356 -0.347266,-1.988506 0,-0.994942 0.128156,-1.677072 0.384472,-2.046385 0.203948,-0.289388 0.4768,-0.434084 0.818554,-0.434084 z m 4.712891,0 c 0.347265,0 0.636653,0.163986 0.868164,0.491961 0.234267,0.327972 0.351401,0.990809 0.351398,1.988508 0,0.992186 -0.117131,1.653646 -0.351398,1.984376 -0.231511,0.33073 -0.518142,0.49609 -0.859896,0.49609 -0.341754,0 -0.629767,-0.16398 -0.864029,-0.49196 -0.23151,-0.33072 -0.347268,-0.99356 -0.347265,-1.988506 0,-0.994942 0.128156,-1.677072 0.384471,-2.046385 0.203949,-0.289388 0.4768,-0.434084 0.818555,-0.434084 z m 56.422396,0 c 0.34726,0 0.63665,0.163986 0.86816,0.491961 0.23427,0.327972 0.3514,0.990809 0.3514,1.988508 0,0.992186 -0.11713,1.653646 -0.3514,1.984376 -0.23151,0.33073 -0.51814,0.49609 -0.85989,0.49609 -0.34176,0 -0.62977,-0.16398 -0.86403,-0.49196 -0.23151,-0.33072 -0.34727,-0.99356 -0.34727,-1.988506 0,-0.994942 0.12816,-1.677072 0.38447,-2.046385 0.20395,-0.289388 0.4768,-0.434084 0.81856,-0.434084 z m 4.71289,0 c 0.34727,0 0.63665,0.163986 0.86816,0.491961 0.23427,0.327972 0.3514,0.990809 0.3514,1.988508 0,0.992186 -0.11713,1.653646 -0.3514,1.984376 -0.23151,0.33073 -0.51814,0.49609 -0.85989,0.49609 -0.34176,0 -0.62977,-0.16398 -0.86403,-0.49196 -0.23151,-0.33072 -0.34727,-0.99356 -0.34727,-1.988506 0,-0.994942 0.12816,-1.677072 0.38447,-2.046385 0.20395,-0.289388 0.47681,-0.434084 0.81856,-0.434084 z M 66.125163,102.1147 v 0.84749 h 0.847492 v -0.84749 z m 44.648437,0 v 0.84749 h 0.84749 v -0.84749 z m -62.481975,14.91381 v 36.36368 h 4.812109 v -17.14004 h 18.901172 v 17.14004 h 4.812109 v -36.36368 h -4.812109 v 14.93243 H 53.103734 v -14.93243 z m 127.456815,3.82044 c -0.43201,0 -0.77618,0.11266 -1.03249,0.33797 -0.25632,0.22324 -0.40411,0.5488 -0.44339,0.97668 l 0.57361,0.0589 c 0.002,-0.28525 0.0837,-0.50849 0.24495,-0.66972 0.16123,-0.16124 0.3762,-0.24185 0.64492,-0.24185 0.25425,0 0.45992,0.0765 0.61702,0.22944 0.15916,0.1509 0.23874,0.33693 0.23874,0.55811 0,0.21084 -0.0868,0.43511 -0.26045,0.67283 -0.17363,0.23564 -0.50746,0.55603 -1.00149,0.96118 -0.31832,0.26045 -0.56224,0.48989 -0.73173,0.68833 -0.16743,0.19843 -0.28939,0.39997 -0.36587,0.60461 -0.0475,0.12403 -0.0692,0.25322 -0.0651,0.38757 h 3.00447 v -0.5364 h -2.22932 c 0.062,-0.10128 0.14056,-0.20153 0.23564,-0.30075 0.0951,-0.10129 0.31006,-0.29249 0.64493,-0.57361 0.40101,-0.339 0.68729,-0.60565 0.85886,-0.79995 0.17363,-0.19431 0.29766,-0.37931 0.37207,-0.55501 0.0744,-0.1757 0.11162,-0.3545 0.11162,-0.5364 0,-0.3576 -0.12712,-0.65732 -0.38137,-0.89917 -0.25425,-0.24185 -0.59945,-0.36277 -1.0356,-0.36277 z m -3.6928,2.6386 v 0.56121 h 1.71463 v -0.56121 z m -78.073781,2.96675 c -2.331641,0 -4.365625,0.57877 -6.101953,1.73632 -1.719792,1.15756 -3.03444,2.80293 -3.943945,4.93614 -0.909506,2.11666 -1.364258,4.43177 -1.364258,6.94531 0,3.65456 0.992187,6.78821 2.976562,9.40097 1.984375,2.61277 4.787305,3.91915 8.408789,3.91915 2.910417,0 5.341276,-1.14929 7.292576,-3.44786 0.0165,2.91042 -0.0909,4.82038 -0.32246,5.72989 -0.39687,1.48828 -1.157551,2.64583 -2.28203,3.47265 -1.124479,0.82683 -2.720247,1.24024 -4.787305,1.24024 -1.918229,0 -3.431315,-0.41341 -4.539257,-1.24024 -0.826823,-0.61185 -1.331185,-1.5875 -1.513086,-2.92695 L 83.464671,155.575 c -0.06614,2.84427 0.868165,4.9692 2.80293,6.3748 1.934766,1.42214 4.473112,2.13321 7.615039,2.13321 2.645833,0 4.869987,-0.4961 6.67246,-1.48829 1.81901,-0.99218 3.14193,-2.34817 3.96875,-4.06796 0.84336,-1.70326 1.26504,-4.60541 1.26504,-8.70645 v -22.7707 h -4.11758 v 3.175 c -2.017446,-2.51354 -4.580597,-3.77031 -7.689451,-3.77031 z m 0.322461,3.69589 c 2.017448,0 3.737239,0.81856 5.159375,2.45567 1.438675,1.63711 2.158005,4.06797 2.158005,7.29258 0,3.37343 -0.69453,5.8539 -2.083591,7.4414 -1.389063,1.57097 -3.108854,2.35645 -5.159375,2.35645 -2.067057,0 -3.786849,-0.79375 -5.159375,-2.38125 -1.372526,-1.5875 -2.058789,-4.10931 -2.058789,-7.56543 0,-3.175 0.694531,-5.56452 2.083594,-7.16856 1.389062,-1.62057 3.075781,-2.43086 5.060156,-2.43086 z m 83.26417,3.92793 c -0.0972,0.19637 -0.26252,0.39894 -0.4961,0.60771 -0.23357,0.20878 -0.50642,0.38654 -0.81855,0.5333 v 0.53951 c 0.17363,-0.0641 0.36897,-0.1602 0.58601,-0.28836 0.21911,-0.12815 0.39584,-0.25631 0.5302,-0.38447 v 3.55637 h 0.55811 v -4.56406 z m -4.12378,0.82475 v 1.23714 h -1.23714 v 0.5209 h 1.23714 v 1.24643 h 0.5271 v -1.24643 h 1.23713 v -0.5209 h -1.23713 v -1.23714 z m 3.89123,12.40441 c -0.43201,0 -0.77618,0.11266 -1.03249,0.33797 -0.25632,0.22324 -0.40411,0.5488 -0.44339,0.97668 l 0.57361,0.0589 c 0.002,-0.28526 0.0837,-0.5085 0.24495,-0.66973 0.16123,-0.16123 0.3762,-0.24185 0.64492,-0.24185 0.25425,0 0.45992,0.0765 0.61702,0.22945 0.15916,0.15089 0.23874,0.33693 0.23874,0.5581 0,0.21084 -0.0868,0.43512 -0.26045,0.67283 -0.17363,0.23564 -0.50746,0.55604 -1.00149,0.96118 -0.31832,0.26045 -0.56224,0.48989 -0.73173,0.68833 -0.16743,0.19844 -0.28939,0.39998 -0.36587,0.60462 -0.0475,0.12402 -0.0693,0.25321 -0.0651,0.38757 h 3.00447 v -0.5364 h -2.22932 c 0.062,-0.10129 0.14056,-0.20154 0.23564,-0.30076 0.0951,-0.10129 0.31006,-0.29249 0.64493,-0.57361 0.40101,-0.339 0.68729,-0.60565 0.85886,-0.79995 0.17363,-0.1943 0.29766,-0.3793 0.37207,-0.555 0.0744,-0.1757 0.11162,-0.35451 0.11162,-0.53641 0,-0.3576 -0.12712,-0.65732 -0.38137,-0.89916 -0.25425,-0.24185 -0.59945,-0.36278 -1.0356,-0.36278 z m -3.89123,0.82476 v 1.23713 h -1.23714 v 0.5209 h 1.23714 v 1.24644 h 0.5271 v -1.24644 h 1.23713 v -0.5209 h -1.23713 v -1.23713 z M 47.433796,171.11462 v 9.09092 h 1.159621 v -7.73907 l 2.629297,7.73907 h 1.085204 l 2.641698,-7.60884 v 7.60884 h 1.159621 v -9.09092 H 54.49073 l -2.17661,6.32519 c -0.21911,0.64079 -0.380339,1.12655 -0.483693,1.45728 -0.09095,-0.29766 -0.235643,-0.74621 -0.434081,-1.34566 l -2.151808,-6.43681 z m 13.189894,2.35644 c -0.909505,0 -1.649513,0.30593 -2.220021,0.91778 -0.570508,0.61184 -0.85576,1.47174 -0.85576,2.57968 0,1.07074 0.28112,1.90376 0.843359,2.49908 0.566373,0.59117 1.331185,0.88676 2.294432,0.88676 0.764813,0 1.393198,-0.18603 1.885157,-0.5581 0.491961,-0.37207 0.828889,-0.89504 1.01079,-1.5689 l -1.153417,-0.14263 c -0.1695,0.47129 -0.398941,0.81443 -0.688329,1.0294 -0.289388,0.21497 -0.638723,0.32246 -1.047999,0.32246 -0.549838,0 -1.008724,-0.19224 -1.376661,-0.57671 -0.367935,-0.38447 -0.572574,-0.93844 -0.613916,-1.66191 h 4.911328 c 0.0041,-0.13229 0.0062,-0.23151 0.0062,-0.29766 0,-1.08727 -0.279054,-1.93063 -0.837158,-2.53008 -0.558107,-0.59944 -1.277443,-0.89917 -2.158008,-0.89917 z m 6.784081,0 c -0.260448,0 -0.500227,0.0744 -0.719336,0.22324 -0.214974,0.14883 -0.450617,0.45682 -0.706933,0.92398 v -0.99839 h -1.004591 v 6.58565 h 1.116211 v -3.44786 c 0,-0.47128 0.06201,-0.90537 0.186037,-1.30224 0.08268,-0.26045 0.221173,-0.46302 0.415478,-0.60772 0.194302,-0.14882 0.413411,-0.22324 0.657322,-0.22324 0.272852,0 0.545704,0.0806 0.818555,0.24185 l 0.384474,-1.0356 c -0.388607,-0.23978 -0.771012,-0.35967 -1.147217,-0.35967 z m 4.483446,0 c -0.566372,0 -1.091406,0.13436 -1.575096,0.40308 -0.479557,0.26458 -0.837158,0.66352 -1.072804,1.19683 -0.235643,0.5333 -0.353467,1.15548 -0.353467,1.86655 0,1.09967 0.272852,1.9451 0.818555,2.53628 0.549838,0.58704 1.275376,0.88056 2.176613,0.88056 0.719336,0 1.324983,-0.2129 1.816941,-0.63872 0.496094,-0.42995 0.804088,-1.02319 0.923976,-1.77973 l -1.097608,-0.14263 c -0.07855,0.5581 -0.264584,0.97152 -0.558105,1.24023 -0.293523,0.26872 -0.659392,0.40308 -1.097608,0.40308 -0.545703,0 -0.988052,-0.20051 -1.327049,-0.60151 -0.338998,-0.40101 -0.508498,-1.04387 -0.508498,-1.92857 0,-0.8723 0.1757,-1.50895 0.527101,-1.90996 0.351398,-0.40514 0.80822,-0.60771 1.370459,-0.60771 0.372071,0 0.68833,0.11162 0.948778,0.33486 0.264583,0.22324 0.448553,0.55604 0.551905,0.99839 l 1.085204,-0.16743 c -0.128156,-0.66559 -0.419611,-1.17823 -0.874363,-1.53789 -0.454753,-0.36381 -1.039731,-0.54571 -1.754934,-0.54571 z m 13.177491,0 c -0.260448,0 -0.500227,0.0744 -0.719336,0.22324 -0.214974,0.14883 -0.450617,0.45682 -0.706932,0.92398 v -0.99839 h -1.004591 v 6.58565 h 1.11621 v -3.44786 c 0,-0.47128 0.06201,-0.90537 0.186037,-1.30224 0.08268,-0.26045 0.221173,-0.46302 0.415478,-0.60772 0.194302,-0.14882 0.413411,-0.22324 0.657323,-0.22324 0.272851,0 0.545703,0.0806 0.818554,0.24185 l 0.384474,-1.0356 c -0.388606,-0.23978 -0.771011,-0.35967 -1.147217,-0.35967 z m -9.512596,0.14883 v 4.08037 c 0,0.47542 0.02273,0.82269 0.06821,1.0418 0.06615,0.32659 0.179835,0.60358 0.341064,0.83096 0.165364,0.22324 0.415478,0.40927 0.750342,0.5581 0.338998,0.14883 0.7028,0.22324 1.091406,0.22324 0.880565,0 1.577166,-0.37207 2.089796,-1.11621 v 0.96739 h 0.998387 v -6.58565 h -1.116211 v 3.52847 c 0,0.56224 -0.06201,0.99219 -0.186034,1.28984 -0.119891,0.29352 -0.326596,0.5271 -0.620117,0.70073 -0.293524,0.1695 -0.607716,0.25425 -0.942578,0.25425 -0.334865,0 -0.615985,-0.0827 -0.84336,-0.24805 -0.227377,-0.16949 -0.376206,-0.401 -0.446484,-0.69453 -0.04548,-0.20257 -0.06821,-0.59531 -0.06821,-1.17822 v -3.65249 z m 10.703221,0 2.499071,6.59805 c -0.04547,0.11989 -0.07855,0.21084 -0.09922,0.27285 -0.157097,0.44235 -0.270783,0.71933 -0.341064,0.83096 -0.09508,0.14883 -0.21704,0.26458 -0.365869,0.34726 -0.148828,0.0827 -0.347265,0.12403 -0.595312,0.12403 -0.181901,0 -0.394809,-0.0331 -0.63872,-0.0992 l 0.124023,1.04799 c 0.264584,0.091 0.504362,0.13643 0.719336,0.13643 0.355534,0 0.661459,-0.0868 0.917774,-0.26045 0.256315,-0.1695 0.48369,-0.43822 0.682127,-0.80615 0.148828,-0.27285 0.357601,-0.77101 0.626319,-1.49448 l 2.505274,-6.69727 h -1.116211 l -1.407666,3.83853 c -0.177768,0.48782 -0.330729,0.98805 -0.458888,1.50068 -0.140559,-0.5333 -0.299722,-1.0418 -0.47749,-1.52549 l -1.370457,-3.81372 z m -25.623242,0.76895 c 0.566375,0 1.027327,0.21497 1.382861,0.64492 0.23151,0.27698 0.37207,0.69246 0.421679,1.24643 h -3.677293 c 0.03721,-0.57464 0.229442,-1.03352 0.576707,-1.37666 0.351402,-0.34313 0.783416,-0.51469 1.296046,-0.51469 z m 62.387409,17.76997 c -0.34494,0 -0.61959,0.0899 -0.82424,0.26975 -0.20465,0.17824 -0.32263,0.43817 -0.35399,0.7798 l 0.45786,0.047 c 0.002,-0.22775 0.0671,-0.4056 0.19585,-0.53433 0.12873,-0.12873 0.30015,-0.19327 0.5147,-0.19327 0.203,0 0.36705,0.0608 0.49247,0.18294 0.12708,0.12047 0.19069,0.26937 0.19069,0.44596 0,0.16834 -0.0691,0.34713 -0.20774,0.53692 -0.13863,0.18815 -0.40499,0.44392 -0.79943,0.7674 -0.25416,0.20794 -0.44913,0.3914 -0.58446,0.54983 -0.13368,0.15844 -0.23091,0.31927 -0.29198,0.48266 -0.038,0.099 -0.0555,0.20227 -0.0522,0.30954 h 2.39882 v -0.42839 h -1.77974 c 0.0495,-0.0809 0.11219,-0.16108 0.18811,-0.2403 0.0759,-0.0809 0.24733,-0.2334 0.51469,-0.45785 0.32018,-0.27067 0.54877,-0.48359 0.68575,-0.63872 0.13864,-0.15514 0.23773,-0.30259 0.29714,-0.44287 0.0594,-0.14028 0.0894,-0.28316 0.0894,-0.4284 0,-0.28552 -0.10189,-0.52469 -0.30489,-0.71779 -0.203,-0.19309 -0.47859,-0.2899 -0.82682,-0.2899 z m -19.9931,0.13384 c -0.0776,0.15679 -0.20934,0.31856 -0.39584,0.48525 -0.18649,0.16668 -0.4045,0.30863 -0.65371,0.42581 v 0.43046 c 0.13864,-0.0512 0.29438,-0.12763 0.46768,-0.22996 0.17494,-0.10232 0.31647,-0.20463 0.42374,-0.30695 v 2.8391 h 0.44545 v -3.64371 z m 2.61431,0 c -0.26406,0 -0.48341,0.071 -0.65835,0.21291 -0.1733,0.14193 -0.30466,0.34375 -0.39378,0.60616 -0.0875,0.26077 -0.13126,0.60598 -0.13126,1.03508 0,0.68161 0.11985,1.17334 0.35916,1.47537 0.19969,0.25085 0.47435,0.3762 0.82423,0.3762 0.26572,0 0.48507,-0.071 0.65836,-0.21291 0.17494,-0.14358 0.3063,-0.34592 0.39377,-0.60668 0.0875,-0.26241 0.13126,-0.60618 0.13126,-1.03198 0,-0.35978 -0.0272,-0.64554 -0.0817,-0.85679 -0.0545,-0.2129 -0.12958,-0.39262 -0.2253,-0.5395 -0.0957,-0.14854 -0.21692,-0.26143 -0.36381,-0.339 -0.14688,-0.0792 -0.31788,-0.11886 -0.51263,-0.11886 z m -21.590409,0.13333 c -0.07757,0.15679 -0.209349,0.31855 -0.395843,0.48524 -0.186495,0.16669 -0.404498,0.30864 -0.653706,0.42581 v 0.43098 c 0.138633,-0.0512 0.29438,-0.12815 0.467672,-0.23047 0.17494,-0.10233 0.315955,-0.20464 0.42323,-0.30696 v 2.83962 h 0.445966 v -3.64422 z m 2.940904,0.015 -1.656228,2.3518 v 0.40876 h 1.574581 v 0.86868 h 0.445449 v -0.86868 h 0.490411 v -0.40876 h -0.490411 v -2.3518 z m 18.644345,0.22015 c 0.20795,0 0.38123,0.0987 0.51986,0.29507 0.14028,0.19639 0.21084,0.59318 0.21084,1.19062 0,0.59414 -0.0706,0.99 -0.21084,1.18804 -0.13863,0.19805 -0.31005,0.29714 -0.5147,0.29714 -0.20464,0 -0.37699,-0.0982 -0.51728,-0.29455 -0.13863,-0.19805 -0.20825,-0.59484 -0.20825,-1.19063 0,-0.59579 0.077,-1.00461 0.23047,-1.22576 0.12213,-0.17329 0.28525,-0.25993 0.4899,-0.25993 z m -18.725992,0.49557 v 1.63608 h -1.136365 z m -6.030124,1.7198 c -0.460936,0 -0.820159,0.086 -1.077971,0.25786 -0.253905,0.16797 -0.431737,0.38905 -0.5333,0.66249 -0.07422,0.20313 -0.111622,0.51324 -0.111622,0.93121 v 0.66249 h -0.931725 v 0.82011 h 0.931725 v 5.40225 h 1.049033 v -5.40225 h 1.212845 v -0.82011 h -1.212845 v -0.57464 c 0,-0.375 0.06614,-0.63067 0.198954,-0.7674 0.132813,-0.13671 0.359748,-0.20515 0.680061,-0.20515 0.195313,0 0.402402,0.0198 0.621152,0.0589 l 0.15813,-0.92036 c -0.359375,-0.0703 -0.687562,-0.10541 -0.984437,-0.10541 z m 30.767626,0.11161 c -0.90625,0 -1.62698,0.32819 -2.16214,0.98444 -0.61328,0.75391 -0.91984,1.96081 -0.91984,3.62097 0,1.48437 0.27731,2.55085 0.83199,3.19929 0.55469,0.64453 1.27135,0.96686 2.15026,0.96686 0.51562,0 0.97661,-0.12339 1.38286,-0.36948 0.40625,-0.2461 0.72451,-0.59947 0.95498,-1.0604 0.23438,-0.46485 0.3514,-0.96679 0.3514,-1.50586 0,-0.82031 -0.24805,-1.48838 -0.74414,-2.00401 -0.49219,-0.51953 -1.08953,-0.77928 -1.79266,-0.77928 -0.40234,0 -0.78726,0.0936 -1.15445,0.28112 -0.36719,0.1875 -0.67782,0.47473 -0.93172,0.86145 0.008,-0.85938 0.10728,-1.5216 0.29869,-1.98644 0.1914,-0.46485 0.45345,-0.81822 0.78548,-1.06041 0.25391,-0.1875 0.54876,-0.28112 0.8847,-0.28112 0.41797,0 0.76956,0.15036 1.05472,0.45114 0.17187,0.1875 0.30467,0.48821 0.39842,0.90227 l 1.04903,-0.0822 c -0.0859,-0.66797 -0.34568,-1.19103 -0.77928,-1.56993 -0.42969,-0.37891 -0.98251,-0.56845 -1.6583,-0.56845 z m -64.078255,0.0351 v 10.97453 h 2.325957 v -0.87282 h -1.27124 v -9.22889 h 1.27124 v -0.87282 z m 2.958994,0 2.929536,4.11345 -3.322278,4.47621 h 1.365292 l 2.156458,-2.99413 c 0.08203,-0.11719 0.218387,-0.3319 0.409794,-0.64441 0.128905,0.20703 0.254077,0.39835 0.375171,0.57413 l 2.162141,3.06441 h 1.406115 l -3.251996,-4.54081 3.017903,-4.04885 h -1.236617 l -1.728576,2.27945 c -0.261721,0.33985 -0.488141,0.66574 -0.679545,0.97824 -0.136719,-0.2461 -0.367213,-0.59769 -0.691431,-1.05472 l -1.558562,-2.20297 z m 14.478701,0 v 0.87282 h 1.271241 v 9.22889 H 65.0105 v 0.87282 h 2.325957 v -10.97452 z m 10.499619,0 -3.919659,5.56659 v 0.96635 h 3.726389 v 2.05672 h 1.054716 v -2.05672 H 77.5317 v -0.96635 h -1.160135 v -5.56658 z m 24.02954,0 v 3.08199 c -0.183594,-0.25391 -0.421716,-0.45922 -0.714684,-0.61547 -0.292968,-0.16016 -0.627007,-0.23978 -1.002007,-0.23978 -0.51172,0 -0.975,0.13458 -1.389062,0.40411 -0.414062,0.26953 -0.724178,0.65801 -0.931209,1.16582 -0.207031,0.50391 -0.310576,1.06666 -0.310576,1.68776 0,0.63671 0.112951,1.20124 0.339514,1.69343 0.23047,0.48828 0.552804,0.86913 0.966866,1.14257 0.417968,0.27343 0.874882,0.40979 1.370976,0.40979 0.765625,0 1.34593,-0.30834 1.740463,-0.92552 v 0.78496 h 0.97823 v -8.58965 z m -9.919808,0.11731 -0.83199,4.41213 0.990121,0.12868 c 0.156249,-0.2461 0.370967,-0.44555 0.644406,-0.5979 0.273436,-0.15625 0.579995,-0.23409 0.919839,-0.23409 0.546876,0 0.988529,0.17376 1.324467,0.52141 0.339845,0.34766 0.50953,0.82213 0.50953,1.42369 0,0.63281 -0.175538,1.14061 -0.527101,1.52342 -0.351562,0.38281 -0.781513,0.57464 -1.289325,0.57464 -0.421875,0 -0.782875,-0.13509 -1.083656,-0.40463 -0.296876,-0.27343 -0.48641,-0.67946 -0.568442,-1.21853 l -1.107424,0.0935 c 0.07031,0.72266 0.351171,1.30296 0.84336,1.74046 0.496093,0.4375 1.134911,0.65629 1.916162,0.65629 0.953125,0 1.705412,-0.34803 2.256192,-1.04334 0.453126,-0.56641 0.679546,-1.23804 0.679546,-2.01538 0,-0.81641 -0.257972,-1.48449 -0.773597,-2.00402 -0.515625,-0.51953 -1.148593,-0.77928 -1.898592,-0.77928 -0.566407,0 -1.107014,0.17961 -1.622639,0.53899 l 0.462502,-2.30839 h 3.427698 v -1.00769 z m -14.303002,1.57613 v 3.87315 h -2.689241 z m -13.868921,0.5333 c -0.859375,0 -1.558483,0.28901 -2.097545,0.86713 -0.539065,0.57813 -0.808736,1.39019 -0.808736,2.43706 0,1.01172 0.265599,1.79912 0.796848,2.36162 0.535157,0.55859 1.25767,0.83767 2.167826,0.83767 0.722657,0 1.316445,-0.17554 1.781289,-0.5271 0.464844,-0.35156 0.783103,-0.84588 0.954979,-1.4826 l -1.089855,-0.13487 c -0.160155,0.44531 -0.376653,0.76994 -0.65009,0.97307 -0.273439,0.20312 -0.603919,0.30437 -0.990637,0.30437 -0.51953,0 -0.953039,-0.18139 -1.300697,-0.54467 -0.347654,-0.36328 -0.540747,-0.88685 -0.579807,-1.57045 h 4.640542 c 0.0039,-0.125 0.0057,-0.21862 0.0057,-0.28112 0,-1.02734 -0.263305,-1.82414 -0.790649,-2.39055 -0.527344,-0.5664 -1.207119,-0.84956 -2.039152,-0.84956 z m 56.185202,0 c -0.32422,0 -0.62848,0.0427 -0.91364,0.12868 -0.28125,0.082 -0.50411,0.18379 -0.66818,0.30489 -0.21875,0.15625 -0.39251,0.35341 -0.52141,0.59169 -0.125,0.23438 -0.18759,0.49005 -0.18759,0.7674 0,0.30468 0.0761,0.58428 0.22841,0.83819 0.15625,0.25 0.38267,0.44716 0.67955,0.5917 0.30078,0.14062 0.83835,0.30853 1.61178,0.50384 0.57422,0.14453 0.93344,0.26385 1.07798,0.3576 0.20703,0.13672 0.31057,0.32396 0.31057,0.56224 0,0.26562 -0.11702,0.4979 -0.3514,0.69712 -0.23437,0.19531 -0.59411,0.293 -1.07849,0.293 -0.48046,0 -0.85546,-0.11117 -1.12499,-0.33383 -0.26563,-0.22265 -0.42768,-0.54321 -0.48628,-0.96118 l -1.04283,0.16433 c 0.11719,0.66016 0.38686,1.15803 0.80874,1.49397 0.42578,0.33594 1.04297,0.50384 1.85157,0.50384 0.48828,0 0.92534,-0.0837 1.31206,-0.25166 0.38672,-0.17188 0.68209,-0.4123 0.88522,-0.72089 0.20703,-0.3125 0.31006,-0.64424 0.31006,-0.9958 0,-0.35938 -0.0837,-0.6606 -0.25167,-0.90279 -0.16797,-0.24219 -0.40024,-0.42535 -0.69711,-0.55035 -0.29297,-0.12891 -0.81247,-0.29326 -1.55856,-0.49248 -0.51563,-0.14063 -0.82626,-0.23017 -0.93173,-0.26924 -0.18359,-0.0742 -0.31869,-0.16835 -0.40463,-0.28163 -0.0859,-0.10938 -0.12867,-0.23225 -0.12867,-0.36897 0,-0.21485 0.10354,-0.40209 0.31057,-0.56224 0.20704,-0.16016 0.55277,-0.2403 1.03715,-0.2403 0.41016,0 0.72664,0.0896 0.9493,0.26924 0.22656,0.17968 0.36291,0.43003 0.40979,0.75034 l 1.03146,-0.14108 c -0.0664,-0.40234 -0.1875,-0.72238 -0.36328,-0.96066 -0.17578,-0.24219 -0.44901,-0.4335 -0.82011,-0.57413 -0.36719,-0.14062 -0.79536,-0.21084 -1.28364,-0.21084 z m -56.173833,0.86713 c 0.535157,0 0.97096,0.20302 1.306896,0.60927 0.21875,0.26172 0.351552,0.65427 0.398426,1.1777 h -3.474723 c 0.03516,-0.54297 0.217062,-0.97647 0.545187,-1.30069 0.332031,-0.32422 0.739839,-0.48628 1.224214,-0.48628 z m 36.46289,0.006 c 0.480468,0 0.884722,0.19946 1.212845,0.5979 0.328126,0.39843 0.492477,1.02326 0.492477,1.87482 0,0.77344 -0.162057,1.34967 -0.486275,1.72857 -0.320313,0.37501 -0.711084,0.56224 -1.172022,0.56224 -0.457031,0 -0.853652,-0.19716 -1.189591,-0.59169 -0.335939,-0.39453 -0.503846,-0.9901 -0.503846,-1.78697 0,-0.82422 0.156207,-1.42793 0.468707,-1.81074 0.316404,-0.38282 0.708956,-0.57413 1.177705,-0.57413 z m 13.570743,0.84956 c 0.48047,0 0.87888,0.17198 1.19528,0.51573 0.31641,0.33984 0.47439,0.80668 0.47439,1.40043 0,0.61719 -0.16028,1.10514 -0.48059,1.46451 -0.32031,0.35938 -0.70294,0.5395 -1.14825,0.5395 -0.30469,0 -0.59599,-0.086 -0.87333,-0.25786 -0.27735,-0.17578 -0.49384,-0.42968 -0.65009,-0.76171 -0.15235,-0.33203 -0.22841,-0.68007 -0.22841,-1.04335 0,-0.55469 0.16561,-1.00168 0.49764,-1.34152 0.33203,-0.34375 0.7368,-0.51573 1.21336,-0.51573 z"
       inkscape:connector-curvature="0" />
  </g>
</svg>
